<svg xmlns="http://www.w3.org/2000/svg" xmlns:xlink="http://www.w3.org/1999/xlink" width="1440" height="802" viewBox="0 0 1440 802">
    <defs>
        <linearGradient id="a" x1="50%" x2="50%" y1="0%" y2="100%">
            <stop offset="0%" stop-color="#3E0A4D"/>
            <stop offset="100%" stop-color="#270A2F"/>
        </linearGradient>
        <path id="b" d="M960.206 958h-14.724a21.829 21.829 0 0 1-9.62-8.891L960.206 958zm-60.224 0h-6.6l35.125-11.582 3.126 1.145L899.983 958zm-53.454 0h-1.833l-13.07-35.503a19.717 19.717 0 0 1 9.416.655c2.755.862 5.151 2.32 7.176 4.129l7.415-7.485 2.133.779-8.135 8.196a19.993 19.993 0 0 1 5.068 11.553l52.568-1.662 5.2 1.899-57.708 1.808a19.132 19.132 0 0 1-.91 5.626c-.109.332-.276.61-.408.934l62.188-7.215 4.3 1.572-67.434 7.822a19.59 19.59 0 0 1-5.966 6.892zm-4.41 0h-18.52a20.8 20.8 0 0 1-3.343-3.154L793.157 958h-17.815l43.38-5.027a21.72 21.72 0 0 1-1.821-3.304L765.699 958h-12.747l63.17-10.302a19.463 19.463 0 0 1 .072-11.745c2.049-6.419 7.068-11.06 13.058-12.889L842.12 958zm-97.48 0H717.06c.335-1.042.79-2.047 1.354-2.993l-10.854-7.458 2.12-.768 9.776 6.721a14.16 14.16 0 0 1 4.744-3.985c.61-.311 1.258-.51 1.88-.733l-2.036-7.236 1.75-.633 2.06 7.365a15.171 15.171 0 0 1 3.043-.311c1.653 0 3.282.276 4.828.838l5.858-13.64 2.36-.863-1.03 2.412-5.523 12.815c2.024 1.007 3.786 2.503 5.163 4.424l60.487-38.34c.324.522.66 1.026 1.03 1.514l-60.51 38.355c.06.107.143.19.203.305.372.72.647 1.46.875 2.211zm-192.674 0h-1.905l-6.84-24.424c.706-.043 1.293-.181 1.736-.415.012-.007.036-.014.048-.021l6.96 24.86zM417.8 958h-4.577l-1.58-.794-.109.794h-11.812l6.313-16.396a18.75 18.75 0 0 1 3.642 4.905c1.39 2.706 1.977 5.575 2.013 8.417L417.8 958zm-20.738 0h-22.726a20.802 20.802 0 0 1-.191-1.924l-100.836-14.958-.755-2.198 101.639 15.082a18.753 18.753 0 0 1 5.978-12.642l-128.869-64.885-.946-2.792 131.552 66.261c.766-.568 1.533-1.114 2.396-1.558 1.497-.772 3.055-1.246 4.636-1.597l-6.876-32.962c-.192.006-.384.01-.576.01-6.828 0-13.405-3.667-16.748-10.149-4-7.774-2.012-17.015 4.23-22.593l-49.765-85.11 2.012.078 48.89 84.052c.851-.645 1.774-1.268 2.756-1.774a18.7 18.7 0 0 1 8.578-2.089 18.83 18.83 0 0 1 16.316 9.464l38.911-20.467-.826 2.13-37.39 19.603c4.36 9.148.73 20.157-8.338 24.829-1.929.995-3.941 1.539-5.978 1.825l6.84 32.797a18.907 18.907 0 0 1 13.046 3.488L397.063 958zm-103.794 0h-6.757l-8.362-2.674-.826-2.424L293.268 958zm672.28-.656l-12.854-4.692-20.438-7.474 1.69-.558c-.288-.956-.456-1.92-.612-2.89l-7.978.926-4.301-1.572 9.368-1.086-11.357.356-5.199-1.9 19.168-.608c.12-7.826 4.349-15.315 11.8-19.148a21.621 21.621 0 0 1 9.944-2.418c2.372 0 4.72.387 6.948 1.13l20.965-41.616 2.552-.485-21.576 42.83c.563.255 1.15.503 1.701.805l33.232-46.164 2.936-.556-34.455 47.855c2.96 2.01 5.547 4.664 7.296 8.059 5.45 10.571 1.473 23.478-8.83 29.206zm-729.592-.057c-7.943 0-15.61-4.327-19.504-11.882-5.067-9.834-1.905-21.644 6.865-27.854l-19.468-26.53c.695-.213 1.39-.44 2.073-.679l19.132 26.071c.3-.166.55-.393.85-.548.492-.25.995-.375 1.498-.581l-11.669-29.476c.6-.351 1.198-.712 1.785-1.084l11.789 29.798a22.036 22.036 0 0 1 6.697-1.041c7.93 0 15.574 4.283 19.467 11.83 1.893 3.665 2.588 7.601 2.348 11.423l12.004 1.781.755 2.197-12.975-1.925c-.395 2.452-1.186 4.855-2.384 7.05l19.192 6.135.827 2.424-21.217-6.782c-1.988 2.936-4.636 5.487-8.026 7.232a21.848 21.848 0 0 1-10.04 2.441zm469.112-11.456l-26.751-18.38c.383-.343.658-.7.862-1.076.072-.142.132-.281.18-.419l27.817 19.107-2.108.768zm18.317-6.669l-19.575-69.887 2.096.676 19.216 68.578-1.737.633zm19.528-7.112l2.036-4.75 16.892-39.315 1.75.566-18.306 42.636-2.372.863zm-200.354-.826l-2.336-8.368v-.31c0-1.275-.215-2.377-.647-3.305a5.338 5.338 0 0 0-.683-1.123l-26.188-93.5c-.994.21-2 .313-3.007.313a14.45 14.45 0 0 1-7.715-2.227l-23.876 12.518-.467-1.527 22.822-12.009a14.542 14.542 0 0 1-3.666-4.577 14.386 14.386 0 0 1-1.018-10.707l-16.042-5.837c.312-.524.611-1.065.887-1.623l15.825 5.753c.288-.674.635-1.328 1.019-1.956l26.703 8.61a14.792 14.792 0 0 1-2.048 6.564L668.888 918.76a6.06 6.06 0 0 0-.779 1.67l-52.723-36.23-94.295-64.771a14.38 14.38 0 0 1-4.744 3.958c-.61.312-1.246.53-1.88.734l26.056 93.049c-.108.21-.168.435-.168.678 0 .25.12.654.36 1.206l1.162 2.95 2.192 7.791a9.081 9.081 0 0 1-.384.728c-.167.264-.347.447-.55.552a1.628 1.628 0 0 1-.576.149zm133.47-5.346l-5.128-3.525c.036-.738.18-1.376.431-1.911l5.775 3.959c-.12.143-.228.309-.324.497a4.25 4.25 0 0 1-.755.98zm183.653-7.24l-2.133-.778 22.403-22.605 3.582-.678-23.852 24.061zm-22.583-22.447a16.719 16.719 0 0 0-.946-1.565l119.56-75.781 51.227-51.66c.443.518.898 1.03 1.353 1.533l-44.78 45.17 56.221-35.638c.587.366 1.174.724 1.773 1.069l-63.77 40.407-71.112 71.74-3.582.677 66.872-67.473-112.816 71.521zm-72.527-9.904l-1.76-.567 27.721-64.544c-2.636-1.334-4.9-3.428-6.361-6.264-2.456-4.766-1.953-10.224.719-14.44l-114.242-83.577a14.361 14.361 0 0 1-4.504 3.62c-.611.31-1.246.519-1.869.744l5.439 19.453 35.4 126.386-2.096-.678-40.504-144.662a14.633 14.633 0 0 1-8.638-.807l18.545-6.869c-.227.45-.467.889-.742 1.315l114.24 83.565a14.624 14.624 0 0 1 4.505-3.617 14.324 14.324 0 0 1 6.577-1.596c2.54 0 5.056.676 7.26 1.931l57.217-87.131-1.079 4.985-54.628 83.171c1.7 1.27 3.174 2.896 4.217 4.911.263.519.395 1.037.599 1.545l32.849-11.942-.456 2.112-31.818 11.58c1.521 6.34-1.366 13.14-7.428 16.258a14.303 14.303 0 0 1-6.577 1.596 14.68 14.68 0 0 1-4.936-.86l-27.65 64.382zm-516.409-11.395l-13.705-6.9c.383-.58.743-1.166 1.102-1.76l11.645 5.867.958 2.793zm735.93-1.877l43.991-87.305c-2.611-1.494-4.828-3.667-6.529-6.358a55.926 55.926 0 0 0 23.409 7.329 18.355 18.355 0 0 1-7.344 1.525c-2.647 0-5.259-.562-7.667-1.619l-43.308 85.944-2.551.484zm16.605-3.144l60.619-84.202a54.557 54.557 0 0 0 3.055-.734l-60.739 84.382-2.935.554zm-561.538-14.23l.827-2.138 35.437-18.644.467 1.524-36.73 19.257zm84.926-46.932l-25.553-8.243-15.886-16.104 1.87-.693 15.657 15.88c.875-.746 1.81-1.432 2.863-1.976 1.139-.583 2.3-.95 3.475-1.203l-3.14-19.686 1.762-.65 3.187 20.005a14.488 14.488 0 0 1 12.783 5.492l99.253-68.165 7.009-2.596-105.268 72.295c.155.265.359.5.49.76a14.158 14.158 0 0 1 1.498 4.884zm-383.024-3.263l-22.295-30.38 2.912.46 20.653 28.152c-.431.581-.863 1.169-1.27 1.768zm89.023-4.68a60.729 60.729 0 0 0-1.21-1.38l14.748-16.322 2.372.093-15.91 17.609zm615.616-8.428l.467-2.11 147.606-53.66c.06.599.131 1.195.215 1.788l-148.288 53.982zm-402.084-4.911L304.96 736.994c-1.282 2.95-3.498 5.527-6.577 7.11-.431.222-.85.342-1.282.509l22.643 38.92-2.025-.078-22.343-38.223a14.34 14.34 0 0 1-3.642.47c-3.27 0-6.469-1.116-9.032-3.165l-34.539 38.23-2.384-.093 35.593-39.38c-.995-1.017-1.893-2.136-2.576-3.45-.719-1.402-1.114-2.863-1.342-4.34l-.215-1.827a14.71 14.71 0 0 1 1.222-6.172l-24.188-12.246.958-1.817 24.164 12.246c.635-.996 1.33-1.954 2.192-2.794l-19.503-22.534.922-1.74 19.935 23.043c.671-.498 1.366-.973 2.133-1.373 1.39-.71 2.827-1.125 4.276-1.342l-5.954-59.23 1.546-2.927 6.241 61.951c.18-.006.36-.01.527-.01 5.26 0 10.34 2.828 12.903 7.817l.06.117 71.712-30.685a14.434 14.434 0 0 1 .599-11.128l-5.08-2.867-77.342-43.561.85-1.62 82.482 46.464c1.318-2.063 3.151-3.818 5.463-5.013a14.358 14.358 0 0 1 6.59-1.605c3.018 0 5.977.956 8.457 2.712l15.263-18.78.73 2.01-14.555 17.914c1.21 1.152 2.288 2.451 3.079 3.993 2.839 5.51 1.785 11.947-2.109 16.313l43.643 44.233 1.51 4.126-9.896-10.026-36.539-37.059c-.862.747-1.809 1.437-2.863 1.98a14.443 14.443 0 0 1-6.637 1.614c-5.259 0-10.35-2.87-12.938-7.88l-.036-.117-71.724 30.688c1.066 2.95 1.138 6.053.287 8.927l138.333 50.307c-.12.49-.227.987-.311 1.493-.012.109-.024.219-.024.328zm-277.888-2.004l-1.63-3.156 2.54.403 1.03 1.986c-.658.244-1.305.5-1.94.767zm315.193-3.063c-1.09-2.494-2.72-4.71-4.744-6.558l.264-.325 6.17 6.26-1.69.623zm-288.85-1.063a56.596 56.596 0 0 0-2.108-.134l-8.158-52.317 2.732 4.164 7.535 48.287zm-26.643-.972l-2.54-.4-63.936-124.034-20.127-3.243c.012-.511.024-1.022.024-1.539v-.552l18.928 3.059-47.77-92.689c-1.252.233-2.537.36-3.838.36-1.069 0-2.148-.086-3.227-.269l-8.182 35.217a56.039 56.039 0 0 0-1.183-.246l.846-7.384 6.515-28.055c-.18-.058-.364-.072-.554-.151a19.998 19.998 0 0 1-2.613-1.043l2.482-21.675c.604.169 1.153.376 1.8.483 1.042.173 2.078.256 3.1.256 3.504 0 6.855-.977 9.772-2.654l9.368 14.246a19.448 19.448 0 0 1-3.138 4.683l17.706 17.49 5.439 8.276-24.595-24.294a19.854 19.854 0 0 1-7.593 4.317l48.205 93.528 36.132 5.821 1.545 2.349-36.503-5.893 63.937 124.036zm308.809-6.044a20.07 20.07 0 0 0-3.51-1.999l-20.57-20.857-1.51-4.129 1.162 1.18 24.883 25.232-.455.573zm28.74-.084l-4.23-26.618 1.546-1.94 4.445 27.906-1.761.652zm-383.037-1.034l-2.899-.457-57.887-78.883c.527-.449 1.042-.91 1.557-1.378l59.23 80.718zm378.28-28.886l-22.75-142.755a14.573 14.573 0 0 1-10.315-3.391l-39.366 48.45-9.584 11.788-.73-2.01 48.399-59.53c-.875-.946-1.665-1.972-2.276-3.158-.635-1.25-1.03-2.553-1.282-3.869l-64.021 13.968-.623-1.73L460.029 588c-.347-5.062 2.037-10.03 6.422-12.968l-.54-.936-38.431-65.214 2.108-.025 38.42 65.212a14.246 14.246 0 0 1 6.433-1.532c3.726 0 7.368 1.46 10.1 4.094l91-69.58 3.054-.037-92.773 70.936a14.636 14.636 0 0 1 1.594 2.428c2.24 4.335 2.036 9.252-.024 13.274l86.112 56.467-1.15 1.427-85.92-56.346c-1.307 1.925-3.056 3.606-5.272 4.745-1.246.64-2.564 1.019-3.87 1.274l22.475 141.12-1.546 1.94zm130.403-16.589l18.46-12.682c-.143-.264-.359-.484-.49-.754-2.349-4.54-2.061-9.708.287-13.821l-53.035-34.798-19.408-12.725 1.138-1.427 18.198 11.934 54.15 35.496c1.257-1.697 2.887-3.183 4.911-4.22 1.989-1.03 4.121-1.51 6.218-1.558l5.127-152.464 1.917-2.393-5.211 154.9c2.012.204 3.953.798 5.714 1.793l81.835-126.093 10.135-15.64 1.486 1.047-91.934 141.703c1.725 1.29 3.222 2.924 4.276 4.97.192.367.288.757.432 1.13l132.343-45.1 53.826-18.328c.072.614.18 1.221.311 1.819L673.49 703.809c.67 2.419.659 4.906.06 7.246l-1.965.73-20.534 7.599a14.32 14.32 0 0 1-2.97-2.844l-12.448 8.555-7.008 2.593zm477.162-.281a54.14 54.14 0 0 0-.263-3.139l53.179-73.866a22.196 22.196 0 0 1-5.247-3.838l-62.8 45.668a48.99 48.99 0 0 0-1.46-1.492l62.906-45.727c-1.006-1.215-1.94-2.485-2.684-3.939-4.552-8.832-2.467-19.264 4.361-25.793l9.644 36.881a22.315 22.315 0 0 1-2.78-.942l-54.856 76.187zm-922.17-.3l-2.732-4.167-5.847-37.434c-.623.064-1.257.095-1.88.095-6.817 0-13.394-3.69-16.736-10.171a18.646 18.646 0 0 1-1.977-10.592l-13.142-2.122-1.546-2.351 15.095 2.432c.683-3.105 2.085-6.025 4.253-8.448l-66.393-65.583-5.439-8.275 73.294 72.408c1.198-1.069 2.467-2.065 3.965-2.837.527-.267 1.066-.409 1.581-.622l-31.878-92.636a14.177 14.177 0 0 1-4.337.677c-2.875 0-5.679-.858-8.075-2.442l-1.485-1.077a14.126 14.126 0 0 1-3.426-4.321c-.348-.667-.587-1.375-.827-2.057l-.455-1.773c-.12-.624-.192-1.24-.228-1.859l-49.31-.954c-.107 1.39-.3 2.784-.718 4.174l-8.35-12.704a19.252 19.252 0 0 0 4.78-5.234 19.893 19.893 0 0 1 4.3 11.697l49.31.955c.108-1.478.42-2.908.982-4.288l.168-.376 27.734 6.673a14.643 14.643 0 0 1-1.653 5.878l28.392 15.785a19.54 19.54 0 0 0 11.549 6.435l.036.007 5.031 2.8.312 2.254-46.327-25.754a13.577 13.577 0 0 1-2.192 2.511l24.187 27.934 29.747 34.394.455 3.325-55.839-64.539c-.503.343-.982.707-1.521.99l-.324.133 31.891 92.649a18.481 18.481 0 0 1 5.128-.723c6.816 0 13.405 3.73 16.736 10.21.874 1.694 1.39 3.477 1.713 5.259l7.883-3.035.299 2.093-7.859 3.026c.312 4.32-.97 8.569-3.45 12.096l14.412 7.306.347 2.491-16.04-8.125c-1.498 1.672-3.271 3.158-5.416 4.257-1.521.785-3.115 1.254-4.72 1.588l6.541 41.966zm68.44-14.97l-46.122-23.36-.348-2.49 47.43 24.033-.96 1.816zm612.106-4.335l1.09-4.988 34.467-52.486 1.581.924-37.138 56.55zm-603.815-11.46l-37.102-42.88-21.085 8.126-.287-2.091 19.946-7.679-25.026-28.931-.455-3.327 27.29 31.55 50.268-19.36a8.976 8.976 0 0 1-.719-1.101 8.688 8.688 0 0 1-.575-6.542l-81.955-45.565-.311-2.255 82.985 46.14a8.665 8.665 0 0 1 2.205-2.577l-45.369-77.179 1.845-.463 45.069 76.68a8.692 8.692 0 0 1 9.344 1.053l42.194-53.799-4.684 8.942-36.216 46.17c.36.446.66.916.935 1.433.407.808.647 1.668.802 2.535l9.249-2.02-1.102 2.103-8.039 1.754a8.46 8.46 0 0 1-1.054 3.847l4.756 2.682-.85 1.619-4.984-2.806a8.28 8.28 0 0 1-2.516 1.994 8.887 8.887 0 0 1-1.953.702l1.534 15.211-1.534 2.927-1.797-17.904-.228.003c-2.012 0-3.989-.659-5.546-1.946l-50.328 19.385 36.203 41.83-.91 1.74zm817.346-14.37a61.07 61.07 0 0 0-1.82-1.004l38.311-105.056c-3.881-1.668-7.272-4.56-9.368-8.614-.407-.798-.683-1.642-.97-2.485l-14.496 4.354-16.94 110.123a55.99 55.99 0 0 0-1.953-.821l16.7-108.669-151.151 45.13c.611 2.579.515 5.217-.264 7.668l88.808 57.82c-.61.308-1.222.627-1.82.956l-87.694-57.103c-1.306 2.843-3.487 5.29-6.458 6.822a14.421 14.421 0 0 1-6.613 1.607c-2.54 0-5.031-.667-7.223-1.917l-12.088 18.397-1.582-.924 12.16-18.512c-1.701-1.265-3.175-2.896-4.217-4.914-.192-.376-.287-.75-.455-1.138l-12.507 4.26c-.156-.328-.336-.652-.503-.972l2.551-1.635 9.812-3.343a14.532 14.532 0 0 1-.455-2.656l21.552-13.815a14.2 14.2 0 0 1 2.024 1.37l5.978-6.502 6.074-3.894-10.734 11.681c.947 1.004 1.81 2.073 2.468 3.356.264.517.443 1.085.647 1.63l86.172-25.695 65.818-19.672 10.902-70.832 2.324-1.492-11.022 71.685 13.646-4.081c-2.001-8.25 1.749-17.1 9.631-21.161 2.025-1.038 4.157-1.608 6.29-1.873l.36-38.858c.095.001.191.003.299.003.503 0 1.018-.022 1.521-.061l-.347 38.773c.168-.004.335-.007.503-.007 5.331 0 10.53 2.25 14.148 6.329l4.265 16.32a18.843 18.843 0 0 1-7.284 11.24l17.036 26.019 1.641 6.306-20.414-31.199c-.263.149-.467.353-.754.5a18.633 18.633 0 0 1-8.566 2.077c-1.881 0-3.75-.281-5.535-.818l-38.408 105.298zm91.456-29.053c-1.03 0-2.037-.072-3.043-.212l-10.255-39.182c.084-.063.167-.124.251-.183l-.49-.76-1.654-6.307 3.881 5.928c.36-.2.66-.474 1.043-.674a20.755 20.755 0 0 1 4.66-1.718l-23.385-114.409 2.408 1.485 22.99 112.5a23.72 23.72 0 0 1 2.3-.214l-.444-96.995 2.061 1.272.443 95.769c7.572.353 14.784 4.54 18.51 11.765 5.546 10.773 1.33 24-9.44 29.545a21.408 21.408 0 0 1-9.836 2.39zm-868.394-28.304l1.103-2.104 55.203-12.047 36.18-7.893.635 1.728-93.12 20.316zm607.05-9.78a14.513 14.513 0 0 1 7.308-9.462l-72.191-159.065-.18.067-5.451-28.04a15.03 15.03 0 0 1 3.905.423l14.628-38.857 2.492.973-14.592 38.755c2.875 1.3 5.415 3.487 6.973 6.517.694 1.338 1.078 2.75 1.33 4.144l103.111-11.525 3.666 1.432-106.538 11.909a14.52 14.52 0 0 1-7.655 13.52l72.18 159.05a14.645 14.645 0 0 1 5.198-.958c.923 0 1.845.089 2.744.263l-16.928 10.854zM23.98 594.94a55.554 55.554 0 0 0-2.059-.012l-.321-70.202 2.06-.409.32 70.623zm922.63-4.983l117.966-128.37 1.81.708-113.703 123.769-6.074 3.893zM332.37 564.313l4.684-8.944 20.198-25.741c.73.1 1.462.156 2.192.168l-16.113 20.535-10.961 13.982zm-296.86-6.242c-7.207-4.753-10.688-13.881-7.932-22.515a19.673 19.673 0 0 1 2.229-4.705 19.416 19.416 0 0 0 8.073 6.103l-2.37 21.117zm725.887-5.862l-1.474-1.048 69.233-106.742c-1.714-1.276-3.211-2.928-4.277-4.978a14.29 14.29 0 0 1-1.534-5.374l-32.322.833-30.764.77 1.833-1.878 29.279-.736 31.974-.806c.096-2.68.959-5.279 2.456-7.51l-29.111-26.46 2.108-2.16 28.932 26.3c1.006-.983 2.108-1.846 3.414-2.519.695-.36 1.402-.654 2.12-.886l5.5 28.22a14.326 14.326 0 0 1-8.086-1.799L761.397 552.21zm-617.161-10.872l-26.512-6.377a14.483 14.483 0 0 1 5.427-4.87c.24-.123.491-.196.755-.302L89.392 447.64l1.306-2.18 35.126 83.61a14.46 14.46 0 0 1 3.905-.537c1.054 0 2.097.113 3.115.333l17.215-53.92 1.114 2.506-16.58 51.875c3.39 1.181 6.35 3.596 8.122 7.025a14.457 14.457 0 0 1 1.522 4.985zm84.614-.896l-57.06-97.09a14.222 14.222 0 0 1-6.47 1.542c-1.221 0-2.431-.152-3.605-.443l-9.417 29.464-1.114-2.507 8.782-27.521c-3.163-1.25-5.954-3.546-7.644-6.825-.766-1.478-1.174-3.03-1.39-4.595l-.143-1.821c-.048-2.5.503-4.97 1.69-7.159l-27.507-17.257c.503-.38.982-.803 1.426-1.263l27.098 17c1.103-1.54 2.492-2.912 4.181-3.958l21.852 9.905c.228 1.313.263 2.636.132 3.934l13.37 2.183 6.373 2.892-20.067-3.28c-.814 3.498-2.875 6.636-6.002 8.752l57.348 97.583-1.833.464zm435.473-3.91l1.018-30.59 1.845-.024-.958 28.22-1.905 2.393zM21.587 522.225l-.223-48.744 2.085 4.192.2 44.145-2.062.407zm1147.873-11.702l-2.06-1.272-.252-53.834 2.06-1.206.252 56.312zm-743.418-4.093l-14.04-23.828a14.268 14.268 0 0 1-6.458 1.551 14.68 14.68 0 0 1-8.278-2.587l-18.425 23.498a18.06 18.06 0 0 0-.695-2.087l17.659-22.516c-1.294-1.161-2.432-2.527-3.283-4.165a14.568 14.568 0 0 1-1.521-8.07l-24.691-4.035.192-1.822 24.846 4.057a14.49 14.49 0 0 1 4.133-7.26l-25.326-30.323.276-2.532 26.452 31.667c.599-.442 1.198-.876 1.893-1.232a14.148 14.148 0 0 1 6.505-1.565c1.186 0 2.372.143 3.51.418l28.944-94.184 1.629.925-28.824 93.79c3.235 1.224 6.074 3.56 7.775 6.882.67 1.283 1.054 2.625 1.318 3.962l167.3-20.723 2.636 1.503-72.85 9.022-96.81 12.023c.299 5.003-2.061 9.903-6.362 12.815l14.604 24.791-2.109.025zm152.78-1.886l47.166-36.072 1.725.978-45.847 35.057-3.043.037zm86.604-1.07l.42-12.331 1.796 1.023-.383 11.286-1.833.023zM54.22 501.433c-.427-.232-.868-.45-1.318-.65l15.754-102.478-4.444-10.607 2.527.709 2.528 6.023.79-5.097 1.977.556-1.245 8.167 18.724 44.592-1.306 2.18-18.017-42.89-15.083 98.018-.887 1.477zm1087.675-7.86l-2.42-1.485-.862-4.222a17.177 17.177 0 0 0 1.042-5.216l2.24 10.922zm-42.804-1.38l1.39-9.076a19.801 19.801 0 0 0 1.27 5.438l-.336 2.146-2.324 1.492zm-431.352-2.798l-1.797-1.022 1.186-35.28c-3.905-.651-7.427-2.872-9.716-6.35l-27.577 21.089-1.726-.978 28.369-21.687c-.874-1.792-1.354-3.647-1.45-5.517l-61.373 7.6-2.648-1.502 27.087-3.355 36.97-4.576a14.554 14.554 0 0 1 1.941-6.365l-190.53-109.496c-1.162 1.266-2.503 2.384-4.12 3.213a14.221 14.221 0 0 1-6.542 1.585c-1.785 0-3.558-.332-5.211-.961l-10.494 34.12-1.618-.925 10.41-33.916a14.495 14.495 0 0 1-6.097-6.165c-.707-1.38-1.114-2.841-1.342-4.276l-43.775 1.081 2.588-1.89 40.96-1.011c-.168-4.772 2-9.426 6.038-12.307l-6.553-16.288 1.509-1.11 6.601 16.392.228-.144c2.108-1.086 4.348-1.553 6.577-1.553l.215.001 6.29-29.268 2.228-1.637-6.649 31.006a14.744 14.744 0 0 1 7.2 3.132l88.772-86.006c.599.274 1.222.52 1.857.733l-89.335 86.574c.91.976 1.761 2.024 2.408 3.275.934 1.812 1.426 3.726 1.57 5.645l132.198-9.895.767 1.779-133.014 9.967a14.567 14.567 0 0 1-2.54 7.398l154.566 88.816 35.88 20.624 10.842 25.063-1.15 34.387zm434.586-16.067l-.311-.124 3.761-24.525 1.51 3.832-2.6 16.976a19.878 19.878 0 0 0-2.36 3.841zm35.389-.17l-.18-.376.096-.057.084.433zM23.42 471.39l-2.085-4.196-.419-91.614 2.073.58.43 95.23zm1112.891-.758a20.067 20.067 0 0 0-1.653-2.124l-7.236-35.39a54.74 54.74 0 0 0 2.013-.482l7.667 37.528-.79.468zm-772.433-6.837l-155.14-25.348-6.386-2.893 161.73 26.419-.204 1.822zm757.878-1.77a18.12 18.12 0 0 0-1.821-.057l.251-27.746a52.01 52.01 0 0 0 1.821-.188l-.251 27.991zm-53.311-1.962l-1.821-.71 26.907-29.28c.599.251 1.198.49 1.797.72l-26.883 29.27zm-397.628-6.83l-10.938-25.266c.875-.789 1.87-1.48 2.96-2.045 2.096-1.078 4.3-1.545 6.48-1.566l15.143-114.243c-4.205-.835-8.002-3.451-10.11-7.55-.768-1.488-1.21-3.06-1.414-4.648l-2.504.182-64.68 4.848-.767-1.78 64.776-4.848 3.03-.222c-.071-5.316 2.744-10.477 7.8-13.083 1.689-.865 3.462-1.328 5.235-1.517l-.096-2.57 1.881 1.19.048 1.362c.839.023 1.677.1 2.492.254l8.733 5.543c.467.622.887 1.291 1.258 2.006.324.636.54 1.3.779 1.945l2.923-.801 2.408 1.53-4.792 1.314c.779 4.167-.276 8.45-2.887 11.732l98.403 89.465-2.108 2.159-98.416-89.483a13.64 13.64 0 0 1-2.54 1.695c-2.132 1.095-4.372 1.572-6.6 1.572-.348 0-.695-.012-1.055-.036l-15.094 114.033a14.489 14.489 0 0 1 11.237 7.774c.599 1.164.958 2.359 1.222 3.588l74.934-1.886-1.82 1.876-72.79 1.823c.49 5.695-2.409 11.366-7.812 14.145a13.994 13.994 0 0 1-5.319 1.507zm496.319-.676l-.228-52.046a57.386 57.386 0 0 0 2.037-5.496l.251 56.336-2.06 1.206zm-59.11-4.864l-1.509-3.832 1.522-9.89c.682.088 1.377.165 2.072.227l-2.084 13.495zm-740.063-21.478l-2.995-3.584-61.337-73.46 1.94-.525 62.668 75.037-.276 2.532zM178.631 424.8l-18.006-8.16c1.486-.5 3.02-.739 4.54-.739 3.535 0 6.997 1.307 9.68 3.68l49.01-48.743 3.559-.969-51.298 51.004c.766.876 1.473 1.81 2.024 2.889.18.342.336.688.491 1.038zm786.235-5.28l-3.654-1.432 105.364-11.778c.335.581.683 1.157 1.03 1.725l-102.74 11.485zM106.5 394.635l-32.094-20.14-1.941 12.615-1.989-.556 2.049-13.257-5.331-3.316-7.188-4.53c-.623.438-1.222.894-1.905 1.245-.132.067-.288.09-.42.162l7.68 18.262-2.528-.708-7.056-16.793a18.961 18.961 0 0 1-6.375 1.103c-5.414 0-10.668-2.318-14.268-6.519l-1.613-22.282a18.774 18.774 0 0 1 7.321-6.706 18.604 18.604 0 0 1 8.548-2.076c1.894 0 3.771.286 5.572.837l14.04-38.365 1.21 2.688-13.345 36.44a18.66 18.66 0 0 1 8.937 7.963l11.92-1.336 3.03-19.645 1.546 3.458-2.444 15.937 9.153-1.027.79 1.76-10.23 1.148-4.852 31.536 32.274 20.254c-.204.593-.371 1.21-.491 1.848zM77.46 341.24l-10.817 1.2c3.378 7.717 1.221 16.579-5.02 21.87l7.188 4.525 3.99 2.499 4.66-30.094zm781.85 36.963l-2.48-.974 14.4-38.27 3.762-2.41-15.682 41.654zM22.975 373.28l-2.072-.58-.34-74.057c-7.364-.518-14.324-4.699-17.958-11.75-5.547-10.76-1.312-23.995 9.453-29.54a21.428 21.428 0 0 1 9.846-2.388c1.008 0 2.01.07 3.003.207l3.096 42.772c-1.774.473-3.576.71-5.365.75l.337 74.586zm204.427-5.968l26.008-25.871 14.257-14.164c-.767-.864-1.45-1.794-1.989-2.851-.695-1.348-1.09-2.758-1.33-4.173L125.62 335.827l.204-1.87 138.285-15.518a14.524 14.524 0 0 1 3.27-9.885l-100.548-93.757a48.72 48.72 0 0 0 .755-1.79l101.075 94.245c.958-.917 2.037-1.745 3.247-2.372 2.12-1.089 4.36-1.6 6.565-1.6 2.779 0 5.498.806 7.835 2.288l30.62-41.899 1.294 1.34-30.393 41.593a14.237 14.237 0 0 1 3.654 4.529c.886 1.715 1.366 3.515 1.545 5.336l71.82-1.772a19.331 19.331 0 0 0-1.365 1.86l-70.455 1.74a14.36 14.36 0 0 1-4.492 9.955l15.286 18.307-1.94.525-14.736-17.644c-.599.447-1.222.889-1.929 1.255a14.293 14.293 0 0 1-6.565 1.598c-3.558 0-7.032-1.32-9.703-3.721l-37.989 37.773-3.558.969zm941.387-6.316a54.28 54.28 0 0 0-2.096-5.48l-.216-47.233 2.073.988.24 51.725zM32.34 357.832a18.762 18.762 0 0 1-.955-13.178l.955 13.178zm1031.278-1.75l-97.47-77.878 1.618-1.034 96.619 77.205a46.185 46.185 0 0 0-.767 1.708zM92.376 339.56l-.803-1.76 31.747-3.561-.204 1.87-30.74 3.45zM872.68 335.1l27.95-74.272 6.289-9.065-30.465 80.925-3.774 2.412zm268.71-6.62a57.015 57.015 0 0 0-1.832-.924l12.555-26.123 1.857.887-12.58 26.16zm-49.992-1.108L1053.89 254.6l3.067 1.467 36.323 70.461c-.635.27-1.258.552-1.88.845zm8.782-3.261l-14.28-54.248 2.168 1.034 13.885 52.752c-.587.144-1.186.299-1.773.462zM82.995 318.713l-1.557-3.46 11.033-71.777c.647.29 1.294.567 1.953.832l-11.429 74.405zm312.007-4.096c-.192-.222-.371-.439-.563-.652l1.497-.037-.934.689zm773.536-8.094l-2.073-.988-.072-17.2a22.174 22.174 0 0 1-5.223-.984l-6.122 12.74-1.857-.887 6.038-12.574c-4.564-1.892-8.518-5.31-10.962-10.054-3.114-6.027-3.138-12.8-.67-18.595l-54.545-26.187c-1.761 3.184-4.421 5.892-7.883 7.674-1.606.828-3.27 1.304-4.948 1.644l7.02 26.66-2.168-1.035-6.66-25.304a18.9 18.9 0 0 1-1.894.094c-5.762 0-11.333-2.627-14.939-7.34l32.777-5.649c-.155.462-.323.919-.503 1.369l54.665 26.245c1.39-2.556 3.21-4.889 5.559-6.767l-14.46-19.704c.73-.15 1.45-.331 2.156-.543l14.04 19.127c.624-.405 1.21-.873 1.882-1.218a21.906 21.906 0 0 1 10.05-2.446c7.944 0 15.61 4.33 19.516 11.89 5.547 10.762 1.306 23.984-9.476 29.535-2.971 1.533-6.146 2.255-9.32 2.349l.072 18.148zM30.423 297.137l-3.003-41.47a22.68 22.68 0 0 1 3.017 1.008l13.508-18.763.984 2.188-12.532 17.408c2.418 1.278 4.591 3.08 6.418 5.251l12.131-9.285.87 1.935-11.715 8.967c.545.77 1.065 1.565 1.51 2.428 5.546 10.76 1.322 23.99-9.455 29.54-.57.294-1.15.558-1.733.793zm41-4.143l-1.21-2.688 17.934-48.99c.61.338 1.222.663 1.844.978l-18.568 50.7zm638.065-1.925l-2.407-1.53 191.296-52.386c-.695-3.383-.204-6.839 1.378-9.798l-98.524-61.08 2.84-.371 96.678 59.93c1.306-1.832 2.995-3.427 5.127-4.528a14.38 14.38 0 0 1 6.59-1.597c1.665 0 3.306.286 4.863.83l31.016-73.375 2.097-.273-31.436 74.382a14.588 14.588 0 0 1 4.014 2.911l-18.809 27.147 1.617-4.287c-2.563-1.33-4.792-3.419-6.205-6.179-.288-.561-.467-1.14-.66-1.707l-189.475 51.911zm-269.729-9.215l-35.724-88.785-7.93-19.683a14.435 14.435 0 0 1-5.907 1.27 14.53 14.53 0 0 1-5.235-.978l-11.31 15.49-.167-2.898 9.752-13.335a14.495 14.495 0 0 1-5.978-6.097c-.552-1.078-.91-2.191-1.174-3.31l-3.846.175-.096-1.823 3.63-.166c-.635-5.791 2.264-11.622 7.74-14.443 1.317-.678 2.683-1.053 4.084-1.313l-6.23-25.173a12.625 12.625 0 0 1-3.605.527c-2.911 0-5.75-1.005-8.015-2.855l-1.018-18.518a12.576 12.576 0 0 1 3.27-2.422 12.32 12.32 0 0 1 5.667-1.372c1.078 0 2.144.138 3.187.401l4.288-21.015 1.63 1.146-4.193 20.451c2.623 1.092 4.911 3.01 6.337 5.717l10.111-4.988 10.41-5.138 1.702 1.205-21.528 10.621c2.06 5.845-.395 12.462-6.062 15.379-.144.076-.323.112-.48.189l6.35 25.594c.24-.01.467-.017.707-.017 4.469 0 8.781 2.048 11.56 5.716l37.678-37.52 1.51 1.072-38.169 38.014c.108.2.264.367.371.571 3.51 6.803 1.079 15.042-5.343 18.96l43.548 108.244-1.522 1.107zm254.048-.738l-1.57-1 39.534-104.82 2.06-.268-40.024 106.088zm-6.302-4.006l-1.88-1.192-3.295-94.201 1.82-.236 3.355 95.629zm276.606-.537l-40.84-32.631a14.29 14.29 0 0 1-4.085 3.179 14.433 14.433 0 0 1-6.613 1.605c-1.114 0-2.216-.127-3.294-.375l15.358-22.166c.288.438.563.898.803 1.38.742 1.433 1.162 2.936 1.377 4.464l19.36-1.732 39.115-3.495c-4.42-9.159-.803-20.215 8.29-24.905a18.783 18.783 0 0 1 12.555-1.677l9.512 21.683c-5.295 2.759-9.32 7.827-10.363 14.152-.072.396-.12.791-.167 1.185-.935.143-1.87.213-2.804.213a18.86 18.86 0 0 1-15.993-8.902l-28.476 2.55-30.849 2.742c.084 3.097-.839 6.114-2.612 8.664l41.331 33.032-1.605 1.034zm-501.195-11.658l25.039-116.65 1.629 1.157-24.44 113.857-2.228 1.636zm-143.208-1.933l-1.294-1.34 52.772-72.218.155 2.898-51.633 70.66zm-265.885-9.108l-.871-1.936 24.245-18.552c.515.476 1.03.942 1.57 1.4l-24.944 19.088zm1001.276-1.428l-3.079-1.466-7.176-13.909 2.133-.367 8.122 15.742zM46.59 237.794l-.983-2.188 17.107-23.767c.288.769.6 1.533.91 2.285l-17.034 23.67zm997.153-3.056a19.648 19.648 0 0 0-4.54-8.61l-1.127-2.195-1.078.095a19.845 19.845 0 0 0-2.348-1.628l2.516-.225-37.953-73.64c.336-.961.587-1.961.78-2.997l39.39 76.435 18.472-1.639c.587-4.462 2.78-8.605 6.242-11.674l-46.422-61.573 2.515.295 45.333 60.148c.479-.342.994-.674 1.51-.984l-29.436-57.105 2.48.292 28.788 55.868a19.35 19.35 0 0 1 4.552-1.355l.24-5.994c.443.865.923 1.709 1.366 2.572l.323.652-.096 2.475c.42-.029.839-.043 1.27-.043 6.817 0 13.406 3.717 16.748 10.207a18.412 18.412 0 0 1 1.75 11.797l-34.922 6.011c-.108-.184-.204-.372-.312-.561-1.521-2.956-2.096-6.094-2-9.187l-17.48 1.567 5.476 10.643-2.037.353zm-25.805-13.802l-8.685-19.764a18.787 18.787 0 0 1 9.715 8.843 18.38 18.38 0 0 1 1.99 10.052 20.67 20.67 0 0 0-3.02.87zm94.33-28.54l-27.422-37.37 2.792.33 25.793 35.143c-.42.612-.803 1.246-1.162 1.896zm-531.707-.874c-.192-.64-.42-1.267-.671-1.88l88.652-85.9a14.039 14.039 0 0 1-.863-1.146l21.624-18.908a14.4 14.4 0 0 1 2.205 2.455l133.277-76.79L806.214 0h4.59l16.112 8.117L840.945.04c.61.353 1.234.694 1.857 1.028L828.88 9.103l24.403 12.306 11.944-12.573c.72.13 1.45.248 2.18.355l-12.423 13.072L913.04 51.5l2.744 3.684-62.272-31.37-36.096 37.996c.73 7.456-3.019 14.939-10.087 18.578-2.743 1.416-5.678 2.028-8.578 2.028-.287 0-.587-.008-.886-.02l-38.456 40.493c.875.943 1.677 1.974 2.3 3.172.491.971.85 1.947 1.138 2.948l135.722-26.893 14.783-2.928c.096.603.216 1.206.335 1.802l-150.54 29.817c.407 3.05-.12 6.103-1.546 8.763l39.163 24.282-2.851.37-37.306-23.133c-1.318 1.85-3.007 3.434-5.151 4.534a14.332 14.332 0 0 1-6.601 1.602c-1.462 0-2.911-.219-4.301-.64l-9.74 25.83-2.06.267 10.11-26.792c-2.898-1.305-5.39-3.488-6.96-6.54-2.18-4.216-2.036-8.997-.107-12.975l-43.404-24.641a14.457 14.457 0 0 1-5.966 5.73c-1.545.8-3.175 1.244-4.816 1.447l2.456 70.094-1.821.237-2.456-70.228h-.048c-3.69 0-7.236-1.426-9.931-3.974l-89.251 86.482zM826.737 10.338L692.525 87.676l.144.225c2.036 3.946 2.036 8.368.479 12.157l.73.431 42.841 24.301c1.306-2.023 3.115-3.786 5.439-4.98a14.431 14.431 0 0 1 6.637-1.616c3.39 0 6.709 1.193 9.332 3.381l37.45-39.417c-5.655-.963-10.806-4.4-13.622-9.877-4.768-9.242-1.138-20.606 8.123-25.375a18.712 18.712 0 0 1 8.601-2.09c6.83 0 13.43 3.728 16.772 10.215.755 1.467 1.234 3.007 1.57 4.548l34.79-36.633-25.074-12.608zM171.575 191.024a66.275 66.275 0 0 0-.084-2.193l45.644-18.062-48.902 2.233a47.493 47.493 0 0 0-.683-1.792l54.796-2.499 2.037-.805 2.348 2.426-3.259.149-51.897 20.543zm58.439-20.841l-3.151-3.26 38.97-15.421a18.74 18.74 0 0 1 .384-12.889l-53.443 13.73-1.461-1.512 55.815-14.34a18.757 18.757 0 0 1 7.882-7.675 18.501 18.501 0 0 1 8.506-2.068c3.57 0 7.08 1.031 10.111 2.933l1.905-.489 51.095-63.236c.24.763.527 1.509.85 2.232l-48.59 60.15 66.572-17.11c-.55-2.74-.18-5.546.983-7.993l.67 12.242a13.149 13.149 0 0 1-.55-.98c-.264-.496-.42-.998-.6-1.521l-69.004 17.729-.743.915c1.653 1.482 3.09 3.239 4.169 5.319 4.756 9.241 1.126 20.597-8.122 25.357a18.722 18.722 0 0 1-8.602 2.094c-6.829 0-13.418-3.723-16.76-10.205-.132-.249-.192-.518-.3-.772l-37.916 14.999 116.266-5.289 24.726-1.13.096 1.823-139.758 6.367zm-65.555-5.427c-.311-.555-.623-1.1-.958-1.643l45.056-11.575 1.462 1.512-45.56 11.706zm-4.528-6.868a73.088 73.088 0 0 0-1.306-1.626l27.602-27.837 1.437 1.486-27.733 27.977zm925.705-5.267l-2.803-.331-30.286-41.273 1.93-.859 31.159 42.463zm-46.938-5.551l-2.467-.292-11.932-23.147 1.88-.842 12.52 24.28zm-548.551-.276l-1.63-1.156 16.665-77.671c.575.244 1.15.48 1.737.706l-16.772 78.121zm527.97-2.158l-2.504-.297-9.5-12.59 1.713-.764 10.29 13.651zm-68.67-.092l.767-1.816a54.34 54.34 0 0 0 1.75.577l-.42.966-2.096.273zm-829.673-8.405a56.228 56.228 0 0 0-2.456-.137l21.744-30.203c.527.435 1.09.844 1.665 1.223l-20.953 29.117zm69.627-7.981l-1.437-1.486 46.338-46.734 3.379-.484-48.28 48.704zm833.76-6.733l-3.774-7.321c.383-.788.742-1.583 1.09-2.392l4.564 8.871-1.88.842zm-580.515-8.236l-1.51-1.073 51.659-51.435c.479.377.97.746 1.473 1.106l-51.622 51.402zm608.404-4.22l-27.662-37.702 1.078-2.004 28.513 38.847-1.93.859zm-384.582-8.607c-1.413-3.227-1.533-6.73-.587-9.917l-72.503-21.612.48-1.779 55.994 16.69 16.688 4.979a15.43 15.43 0 0 1 1.114-2.074l-59.888-39.274-7.427-4.863.491-1.86 67.89 44.496a14.326 14.326 0 0 1 4.41-3.498c1.784-.923 3.665-1.438 5.522-1.553L667.067 0h1.81l11.62 80.118c1.833.092 3.618.536 5.283 1.292L731.328 0h2.108l-45.811 81.852-21.157 18.51zM413.667 92.68l-1.701-1.203 74.347-36.674c.432.465.887.921 1.342 1.372l-73.988 36.505zm-176.49-15.645l56.81-57.286 1.82 1.07-55.251 55.732-3.378.484zm-73.568-1.793a17.52 17.52 0 0 0-1.678-1.215L215.231 0h2.551l-54.173 75.241zm223.702-1.21l-1.618-1.145 3.906-19.123 1.989-.612-4.277 20.88zm634.484-4.938l-1.678-2.274a56.258 56.258 0 0 0-14.088-19.204L971.095 0h2.552l49.226 67.091-1.078 2.002zm-430.765-.961l-28.2-8.407a66.107 66.107 0 0 0 1.665-1.421l27.003 8.048-.468 1.78zm331.043-9.775l-1.317-.669L918 54.002l5.271 2.653a79.9 79.9 0 0 0-1.198 1.702zm-531.911-7.364l8.89-43.47c-.672-.181-1.319-.466-1.966-.736l-27.53 34.08c-.359-.079-.718-.15-1.078-.21-.42-.07-.85-.123-1.282-.16l28.034-34.69c-2.169-1.325-4.038-3.173-5.284-5.6L389.84 0h29.207l43.116 19.819 9.38 4.306c.084.564.168 1.13.264 1.687l-.575.177L415.63.444c-1.353 2.5-3.414 4.642-6.121 6.037a14.345 14.345 0 0 1-6.601 1.596c-.695 0-1.39-.05-2.073-.146l-8.685 42.451-1.989.611zm543.664-5.347l-36.06-38.103c.755-.196 1.51-.404 2.264-.624l35.449 37.469c-.563.41-1.114.83-1.653 1.258zM598.17 41.092L581.662 30.27a50.24 50.24 0 0 0 .443-1.899l12.95 8.493 3.607 2.367-.492 1.861zm356.082-5.718L948.322 0h2.084l5.858 34.878c-.683.154-1.342.319-2.012.496zm26.571-.591a56.383 56.383 0 0 0-2.588-.501L960.565 0h2.324l17.934 34.783zM297.617 19l-1.833-1.069L313.562 0h30.034a19.812 19.812 0 0 1-13.621 5.451c-2.001 0-4.026-.304-6.026-.945-2.912-.941-5.427-2.527-7.512-4.498L297.617 19zM472.896 1.745L456.052 0h17.335c-.168.577-.335 1.16-.491 1.745z"/>
    </defs>
    <g fill="none" fill-rule="evenodd">
        <path fill="url(#a)" fill-rule="nonzero" d="M0 119h1440v802H0z" transform="translate(0 -119)"/>
        <g opacity=".3">
            <path fill="#12978B" d="M1 839h1437v-958H1z"/>
            <g transform="translate(124 -119)">
                <mask id="c" fill="#fff">
                    <use xlink:href="#b"/>
                </mask>
                <path fill="#14887D" d="M-2.942 958h1196.913V0H-2.942z" mask="url(#c)"/>
            </g>
            <path fill="#14887D" d="M1238.994 316a56.471 56.471 0 0 1-13.023-1.522l-33.637-85.453a56.199 56.199 0 0 1 24.745-20.574 56.04 56.04 0 0 1 8.642-2.87 56.22 56.22 0 0 1 13.273-1.581 55.845 55.845 0 0 1 24.195 5.476 56.16 56.16 0 0 1 27.036 27.867 54.111 54.111 0 0 1 2.09 5.462 56.063 56.063 0 0 1 2.685 17.194c0 5.823-.883 11.434-2.53 16.713a57.212 57.212 0 0 1-2.03 5.478c-6.78 15.686-20.53 27.657-37.337 32.02a55.3 55.3 0 0 1-9.215 1.58 56.73 56.73 0 0 1-4.894.21m-15.959-2.307a56.486 56.486 0 0 1-3.915-1.321 65.813 65.813 0 0 1-1.79-.717c-10.708-4.496-19.72-12.226-25.831-21.967a78.666 78.666 0 0 1-1.027-1.719c-4.762-8.23-7.472-17.781-7.472-27.97a55.822 55.822 0 0 1 5.288-23.793 54.645 54.645 0 0 1 2.435-4.606l32.312 82.093M1078.427 25a56.48 56.48 0 0 1-3.903-1.214c-18.404-6.479-32.416-22.365-36.39-41.946-.12-.599-.239-1.204-.334-1.81a57.382 57.382 0 0 1-.8-9.565c0-10.435 2.805-20.21 7.698-28.595l48.457 65.58c-3.903 2.94-6.743 7.309-7.603 12.511a19.389 19.389 0 0 0-.238 4.136l-6.887.903m45.14-7.222c-.168-.6-.359-1.189-.586-1.765l7.006-3.16a55.321 55.321 0 0 1-6.42 4.925m-1.648-4.014a19.563 19.563 0 0 0-4.655-5.694l29.218-54.365a56.72 56.72 0 0 1 2.518 16.76c0 7.862-1.6 15.35-4.476 22.151a56.543 56.543 0 0 1-9.62 15.3l-12.985 5.848m-6.624-7.21c-2.113-1.39-4.547-2.352-7.233-2.801a19.22 19.22 0 0 0-7.579.232l-30.709-84.916a55.313 55.313 0 0 1 10.778-3.67A55.692 55.692 0 0 1 1093-86a55.91 55.91 0 0 1 12.019 1.303c9.488 2.094 18.094 6.62 25.111 12.897a56.512 56.512 0 0 1 14.036 19.3c.442 1.003.86 2.025 1.253 3.059l-30.124 55.994m-20.027-.435l-49.161-66.531c.13-.198.262-.396.381-.592.394-.578.788-1.147 1.194-1.71a56.863 56.863 0 0 1 10.515-11.064c.537-.43 1.086-.853 1.647-1.265 2.423-1.8 5-3.41 7.698-4.802l30.59 84.607c-.99.386-1.957.825-2.864 1.357M311 774c-3.939 0-7.794-.407-11.506-1.183l35.639-92.517c.847.29 1.707.567 2.614.717 1.038.174 2.077.257 3.103.257 1.79 0 3.545-.253 5.204-.713l18.416 54.11a55.655 55.655 0 0 1-5.467 12.178 51.313 51.313 0 0 1-1.098 1.754 56.257 56.257 0 0 1-16.876 16.677c-.585.371-1.182.73-1.778 1.08a55.534 55.534 0 0 1-11.84 5.196A55.92 55.92 0 0 1 311 774m-13.928-1.747C272.879 766.06 255 744.119 255 718c0-11.783 3.64-22.717 9.858-31.738.406-.597.836-1.183 1.266-1.762a56.156 56.156 0 0 1 25.243-18.96 53.097 53.097 0 0 1 3.676-1.232l27.749 4.41c1.79 4.672 5.359 8.531 10.037 10.701l-35.757 92.834m68.555-41.857l-17.234-50.64a19.6 19.6 0 0 0 2.387-1.176c.525.537 1.05 1.084 1.564 1.642.405.451.811.91 1.205 1.375C361.939 691.387 367 704.103 367 718a56.54 56.54 0 0 1-1.373 12.396m-43.659-64.001l-21.555-3.396a56.25 56.25 0 0 1 13.165-.94 55.885 55.885 0 0 1 7.865.914c.072 1.162.25 2.306.525 3.422M239 129a55.89 55.89 0 0 1-20.875-4.019c-.656-.263-1.3-.54-1.945-.83A56.286 56.286 0 0 1 211.87 122a56.052 56.052 0 0 1-10.909-7.904 56.214 56.214 0 0 1-13.522-19.199c-.31-.75-.62-1.51-.907-2.277A55.983 55.983 0 0 1 183 73C183 42.072 208.076 17 239 17a55.994 55.994 0 0 1 4.38.168 55.658 55.658 0 0 1 24.384 7.774L256.64 126.166A56.018 56.018 0 0 1 239 129m20.206-3.754l10.861-98.848a56.345 56.345 0 0 1 12.02 10.827c.44.531.87 1.073 1.3 1.62a55.947 55.947 0 0 1 3.557 5.208 56.246 56.246 0 0 1 4.034 8.07c.239.592.465 1.186.68 1.787a55.78 55.78 0 0 1 3.33 17.963 55.936 55.936 0 0 1-3.974 21.911c-.24.6-.49 1.192-.752 1.783-5.98 13.564-17.187 24.308-31.056 29.68M1173 668c-1.575 0-3.139-.066-4.69-.195a55.7 55.7 0 0 1-23.322-7.304c-.012-.012-.036-.023-.048-.033-.596-.344-1.181-.701-1.766-1.065a56.508 56.508 0 0 1-11.398-9.5 72.123 72.123 0 0 1-1.349-1.53c-6.803-7.96-11.422-17.848-12.902-28.733a43.992 43.992 0 0 1-.215-1.782A55.883 55.883 0 0 1 1117 612c0-8.068 1.707-15.737 4.786-22.667l96.067 56.2c-7.388 9.874-17.963 17.226-30.209 20.532a54.334 54.334 0 0 1-3.043.732A56.34 56.34 0 0 1 1173 668m46.297-24.48l-96.46-56.427a56.184 56.184 0 0 1 25.135-25.2C1155.503 558.124 1164 556 1173 556a55.884 55.884 0 0 1 20.708 3.95 55.763 55.763 0 0 1 7.208 3.493 56.17 56.17 0 0 1 11.458 8.738c.502.487.979.982 1.456 1.487 8.033 8.557 13.416 19.641 14.812 31.931a53.98 53.98 0 0 1 .263 3.128c.071 1.083.095 2.174.095 3.273 0 11.688-3.58 22.541-9.703 31.52M146.997 588c-.602 0-1.2-.01-1.797-.027l12.696-110.913c.394.077.788.16 1.18.246 24.947 5.484 43.661 27.606 43.924 54.144v.55c0 .514-.012 1.024-.024 1.534-.418 15.68-7.292 29.754-18.046 39.666a64.46 64.46 0 0 1-1.552 1.374C173.593 582.945 160.885 588 146.997 588m-3.84-.129C114.022 585.897 91 561.638 91 532c0-30.69 24.683-55.614 55.282-55.996a55.32 55.32 0 0 1 2.052.012c2.474.057 4.911.276 7.296.645l-12.473 111.21"/>
            <path fill="#1DA89B" d="M1321.471 839h-3.46l66.952-90.663a74.574 74.574 0 0 0 6.646-4.31L1321.47 839m-43.517 0h-3.09l40.967-87.21c.85.384 1.712.753 2.575 1.104L1277.954 839m-37.542 0h-3.101l39.374-51.82 30.404-40.043c.707.436 1.425.863 2.144 1.273l-68.82 90.59m-45.817 0h-4l103.548-101.942c.67.647 1.353 1.286 2.048 1.912L1194.596 839m-103.5 0h-3.065c.215-.103.43-.21.646-.322.204-.108.42-.22.623-.334l1.796.656m-288.37 0h-7.209l33.41-12.169 2.491 1.718L802.726 839m-162.896 0h-2.586l-8.97-29.17a5.64 5.64 0 0 0 .707-.19c.623-.211 1.15-.472 1.569-.785L639.83 839m-236.733 0h-2.599l-1.221-3.604 2.91.93.91 2.674m-128.504 0h-2.659l25.543-66.28c.802.206 1.617.395 2.431.566L274.593 839m-83.442 0h-22.72a26.744 26.744 0 0 1 11.356-2.526c3.916 0 7.807.858 11.364 2.526m-22.729 0h-3.084l-48.651-97.34c-4.73 5.03-11.415 8.096-18.596 8.096-1.376 0-2.772-.113-4.175-.346-13.882-2.31-23.251-15.442-20.949-29.29.615-3.689 2.035-7.028 4.006-9.976L1 633.782v-3.954l77.703 78.112c4.168-4.96 10.102-8.163 16.69-8.879L1 510.22v-6.257l97.425 194.971h.192c1.216 0 2.428.039 3.657.242 2.247.375 4.32 1.117 6.314 2.014l19.191-41.282c-7.79-5.451-12.237-14.987-10.575-24.985 1.941-11.665 11.57-20.072 22.844-21.074l2.88-25.684c.68.046 1.364.08 2.05.102l-2.911 25.436h.257c1.369 0 2.78.075 4.165.303 13.477 2.244 22.615 14.67 21.011 28.103l73.647 11.598 1.724 2.36-75.641-12.024c-2.392 12.046-12.94 20.531-24.9 20.531-1.383 0-2.786-.113-4.197-.348-2.897-.482-5.516-1.517-7.955-2.855l-19.088 41.084c8.743 5.211 13.886 15.361 12.112 26.024-.676 4.06-2.367 7.638-4.616 10.752L168.422 839m-43.338 0h-3.422L1 670.179v-4.787L125.084 839m276.276-5.098l-2.91-.93-2-5.857-1.832-5.403 2.73.406 1.15 3.393 2.862 8.391m658.266-3.793l-4.227-1.546 3.077-1.016c.228.552.384 1.126.67 1.675.157.3.312.597.48.887m-226.088-2.328l-2.503-1.718 16.202-5.9.659 2.385-14.358 5.233m218.735-.363l-8.574-3.132 5.425-.63 6.897 2.522-3.748 1.24m-12.873-4.704l-3.161-1.153 6.598-.207 1.988.73-5.425.63m-509.38-.11a18.624 18.624 0 0 0-2.012-1.683l31.805-82.542 3.317-1.739-33.11 85.964m319.624-.689l-.67-2.386 17.783-6.479-1.33 3.116-15.783 5.75m-453.05-1.996l-2.73-.405-21.651-63.623 3.137 1.583 21.244 62.445m634.448-.258l-49.481-18.087 1.916-1.937 54.163 19.815-6.598.209m-163.256-4.358l1.342-3.117 55.707-20.29c-.826-2.747-1.101-5.702-.598-8.726.095-.567.299-1.05.419-1.611l-37.23-12.009.981-2.264 36.92 11.924c2.957-7.467 10.202-12.437 18.261-12.437.982 0 1.976.074 2.982.226l20.214-92.67 2.718-.992-20.561 94.256c4.658 1.328 8.502 4.235 11.017 8.032l-33.099 20.99a19.39 19.39 0 0 1-1.233-2.375l-57.84 21.063m-240.134-7.526l-1.03-3.344h2.575l.586 1.902c-.191.176-.359.327-.503.451-.24.212-.503.412-.79.598-.275.175-.55.305-.838.393m315.852-1.763a19.46 19.46 0 0 1-15.615-7.886l33.015-20.938a19.562 19.562 0 0 1 1.689 4.33l44.235-8.378-3.09 3.112-40.762 7.725c.215 1.847.287 3.705-.036 5.63-.132.775-.407 1.528-.611 2.291l19.016 6.959-1.916 1.936-17.938-6.557c-1.437 3.287-3.653 6.076-6.49 8.1l.43 1.158c-.802.14-1.592.33-2.37.567l-.18-.482c-2.838 1.548-6.036 2.433-9.377 2.433m-314.846-3.345h-2.587l-.898-2.928c.347-.164.73-.245 1.162-.245.562 0 1.041.126 1.46.377l.863 2.796m-4.144-5.09l-24.668-80.197 2.215-1.161 24.956 81.135a7.681 7.681 0 0 0-.575-.02c-.694 0-1.329.08-1.928.243m382.805-22.003l3.09-3.111 97.428-18.451-1.4 2.779-99.118 18.783m-121.642-6.592l-55.911-18.034-.79-2.853 57.671 18.622-.97 2.265m223.31-12.676l1.4-2.778 14.048-2.66-2.096 2.909-13.352 2.529m-734.583-1.626l-3.149-1.584-6.155-18.084a56.808 56.808 0 0 0 1.161-4.29l8.143 23.958m750.869-1.459l2.095-2.907 154.203-29.204c.443.751.898 1.495 1.365 2.232l-157.663 29.88m-297.603-2.95l-179.565-57.927c.048-.874.024-1.757-.084-2.64l137.713 44.43 41.146 13.282.79 2.855m-267.03-14.026l18.166-47.15c-6.754-3.118-11.257-9.805-11.424-17.314l-122.145-4.722-1.473-2.53 123.785 4.785c.036-.297.012-.595.036-.891l36.105 13.138c-2.287 3.705-5.772 6.499-9.808 8.047l7.712 25.083-2.215 1.164-7.832-25.454a19.02 19.02 0 0 1-4.562.55c-1.066 0-2.156-.088-3.246-.269-.898-.152-1.772-.447-2.622-.705l-9.832 25.483-7.328 19.039-3.317 1.746m858.296-29.223a75.27 75.27 0 0 0 2.167-7.628l16.897-22.88v4.702l-19.064 25.806m-797.523-23.287l-16.214-5.228c-.18.489-.396.966-.623 1.431l-36.656-13.336c1.497-6.1 5.748-10.881 11.173-13.256l-9.16-25.178 4.19 4.253 7.33 20.12a19.793 19.793 0 0 1 5.7-.858 18.565 18.565 0 0 1 7.532 1.595l11.915 12.08-.898.331c.838 2.797 1.137 5.773.622 8.847-.084.55-.3 1.048-.443 1.574l16.598 5.352.347.353a13.15 13.15 0 0 0-1.413 1.92m-270.048-5c-7.844-7.916-18.035-13.508-29.435-15.659-.084-1.474 0-2.978.251-4.494.85-5.163 3.653-9.501 7.557-12.427l-21.124-32.149-.922-5.904 24.141 36.739c1.797-1.015 3.7-1.794 5.772-2.231L327.32 568.42l2.682 1.357 10.035 72.508c.587-.039 1.162-.063 1.749-.063.97 0 1.951.066 2.945.23 1.7.283 3.258.825 4.743 1.504l26.632-50.82 2.215 1.123-26.62 50.8c5.628 3.428 9.257 9.519 9.412 16.279l8.718.336-2.155 2.39-6.73-.26c-.048.408-.024.83-.084 1.218-.994 6.01-4.623 10.887-9.496 13.717m919.931-2.46l-52.906-30.943c.503-.664.982-1.336 1.45-2.02l51.72 30.255a68.762 68.762 0 0 0-.264 2.708m-304.057-4.06l15.424-70.682 1.532-7.003 3.76-5.732-2.79 12.737-15.196 69.689-2.73.991m-524.014-5.234l-73.18-2.828 2.168-2.39 69.527 2.688 1.485 2.53m165.243-2.316l-1.904-1.933 20.357-7.54.395 2.488-18.848 6.985m-313.027-.249l-4.718-.75-1.21-2.345 11.317 1.781a55.6 55.6 0 0 0-5.389 1.314m-7.257-1.153l-42.403-6.74-1.736-2.364 42.93 6.763 1.21 2.34m340.892-6.232l-.395-2.489 123.833-45.857-8.263 5.678-115.175 42.668m-28.68-.557l-1.749-1.769 23.52-29.43.526 3.3-22.297 27.899m815.138-6.828a67.934 67.934 0 0 0-1.246-2.49L1438 634.752v3.145l-22.465 11.752m-842.92-21.353l-4.192-4.25-18.669-51.262-11.376-31.192 1.808-2.223 32.429 88.927m51.624-1.657l-.527-3.302 72.557-90.792 2.083 1.363-74.113 92.73m684.706-9.902l-21.854-83.574c.886.236 1.772.418 2.682.545l21.388 81.798c-.743.397-1.485.808-2.216 1.23m67.767-4.182a84.022 84.022 0 0 0-2.3-.932l43.23-107.212c-8.705-5.224-13.807-15.35-12.046-25.964.742-4.433 2.646-8.304 5.257-11.579l-20.214-12.424-25.663 154.222a73.202 73.202 0 0 0-2.718-.608l25.818-155.204-21.291-13.104c-3.964 2.427-8.55 3.85-13.388 3.85-1.342 0-2.707-.11-4.072-.338-13.16-2.188-22.154-14.143-21.064-27.213l-32.907-20.238-2.216-1.36-.012-2.925 35.446 21.797c2.336-12.103 12.91-20.642 24.908-20.642 1.39 0 2.79.113 4.204.348 13.867 2.306 23.243 15.44 20.944 29.305-1.102 6.6-4.694 12.105-9.592 15.893l19.483 11.99 20.621-123.926c.91.15 1.832.284 2.754.4l-20.812 125.1 21.34 13.144c4.239-4.367 9.963-7.089 16.202-7.613l-.671-130.314c.814-.07 1.64-.155 2.467-.252l.658 130.493c.79.016 1.617.069 2.431.154l4.491-26.99V447.4l-1.736 10.459c.586.135 1.161.29 1.736.464v48.692a25.315 25.315 0 0 1-11.448.72c-2.42-.4-4.599-1.23-6.682-2.209l-43.158 107.027m-625.454-.783l8.262-5.675 15.412-5.711c.886.63 1.832 1.154 2.826 1.567l-26.5 9.819m-445.374-1.924l-43.793-66.664 3.305.534 39.565 60.224.923 5.906m490.412-14.764c.49-.967.862-1.983 1.125-3.027l186.092-68.97c-.156-.527-.3-1.063-.407-1.608l36.727-12.525c1.724 3.52 2.479 7.57 1.784 11.729-.335 2.007-1.054 3.85-1.904 5.568l5.138 3.007-1.354 2.072-4.993-2.918a19.643 19.643 0 0 1-16.298 8.687c-.958 0-1.94-.07-2.922-.214l-10.239 46.93-3.772 5.736 11.628-53.295c-5.724-1.617-10.263-5.65-12.562-10.836l-188.043 69.664m-417.018-2.64l-2.215-1.122 7.329-13.977 1.736 2.017-6.85 13.082m742.726-3.493l-96.926-56.697 1.353-2.072 96.626 56.521c-.37.74-.718 1.49-1.053 2.248M387.05 577.62l-1.748-2.017 21.686-41.368.444 4.483-20.382 38.902m-57.396-10.333l-2.683-1.358-3.101-22.428 2.359-.913.515 3.646 2.91 21.053m-6.083-25.879l-5.665-40.944 2.958 3.423 5.078 36.61-2.371.911m-59.72-.043l-3.305-.532-52.127-79.372 8.406 8.305 47.026 71.599m273.797-1.782L517.865 485.3l2.419-.53 19.172 52.59-1.808 2.224m-128.672-3.792l-.455-4.483 7.916-15.101 2.155 1.218-7.34 14.008-2.276 4.358m290.514-3.31l-2.072-1.363 90.783-113.588-.144 4.139L699.49 532.48m283.304-12.823a19.175 19.175 0 0 1 .108-5.419 19.353 19.353 0 0 1 2.67-7.07l-35.685-25.208-65.994-46.678 1.341-2.074 101.823 71.994c2.264-2.832 5.293-4.954 8.718-6.164L962.57 328.235c1.329-.097 2.67-.38 3.975-.86l33.195 170.71c.97-.127 1.928-.202 2.898-.202.934 0 1.88.068 2.838.227 4.838.805 8.91 3.378 11.82 6.888l14.285-9.163c-.347 1.464-.467 2.986-.347 4.51l-9.352 6-39.087 13.313m-563.352-3.852l-2.155-1.218 4.335-8.283 3.161-.69-5.34 10.19m3.28-11.603l25.22-48.118 8.442-10.77-30.5 58.197-3.161.69m-102.315-3.64l-2.958-3.422-5.412-39.085 2.682 1.488 5.688 41.018m957.042-4.279l-2.407-9.166 4.24 6.466.239.944a22.028 22.028 0 0 0-2.072 1.756m.18-9.006l-4.227-6.466-9.748-37.26a18.576 18.576 0 0 0-1.665-12.503 18.704 18.704 0 0 0-2.598-3.816l-11.891-45.437c-.79.16-1.593.276-2.407.342l.3-32.659.047-6.45c.503.04 1.006.101 1.52.186 4.587.763 8.515 3.079 11.377 6.296l3.952 19.357a20.517 20.517 0 0 1-1.305 2.884l2.167 1.338.683 3.315-4.12-2.536c-2.419 3.421-5.868 5.942-9.843 7.275l27.758 106.134m-224.855-.744a14.527 14.527 0 0 0-4.275-1.55l21.866-14.023-9.591 10.441-8 5.132m-535.546-2.96l-26.943-73.91a19.787 19.787 0 0 1-6.838 1.135l19.387-24.731c.168.637.312 1.286.42 1.945l46.762-.579 1.437 2.45-47.876.593a19.685 19.685 0 0 1-.24 3.918c-1.077 6.504-5.269 11.676-10.753 14.371l27.075 74.278-2.43.53m549.616-6.066l9.592-10.44 146.346-93.873-.73 4.781-155.208 99.532m-909.962-.675c-.48-.087-.96-.167-1.442-.241l4.207-37.518c.717.474 1.471.903 2.26 1.285l-3.348 29.249-1.677 7.225m54.504-15.34l-8.407-8.305-14.561-22.173c.359-.771.682-1.576.946-2.413.048-.142.084-.284.131-.427l21.89 33.319m103.022-4.204l-2.683-1.487-.359-2.637c-.575.04-1.15.064-1.736.064-.97 0-1.952-.066-2.934-.227l-11.58-6.442c-3.736-4.273-5.604-10.126-4.598-16.169l.06-.156-22.19-5.338c.06-.848.036-1.703-.06-2.558l22.896 5.511a19.51 19.51 0 0 1 9.64-11.581l-3.185-7.214-22.418-50.601 1.126-3.538 26.74 60.365a19.538 19.538 0 0 1 6.886-1.272c1.018 0 2.048.083 3.09.257 7.508 1.249 13.22 6.588 15.4 13.352l24.404-6.175 1.306 2.23-25.076 6.344c.371 2.225.49 4.505.108 6.819-1.377 8.266-7.712 14.395-15.46 15.984l.623 4.47m138.215-10.146l20.693-39.474a19.688 19.688 0 0 1-8.454-12.012l-81.802 20.721-27.003 6.83-1.317-2.23 109.786-27.772c-.18-1.728-.203-3.476.096-5.255.311-1.878.946-3.6 1.736-5.231l-142.885-64.797 9.328 1.525 4.982 2.256L467.51 380.53c3.545-5.494 9.7-8.894 16.43-8.894.335 0 .67.008 1.006.024l.167-1.45 2.767-25.415 2.43.397-2.91 26.679c6.934 1.222 12.335 5.979 14.742 12.107l-20.885 26.65-.515-.077c-1.856-.31-3.592-.965-5.22-1.75l-14.454 27.568-8.443 10.773m429.783-12.905l-50.714-35.87c-3.52 5.684-9.772 9.296-16.645 9.296-1.066 0-2.156-.088-3.246-.27-3.472-.578-6.478-2.077-9.04-4.13l-12.79 16.013.132-4.138 10.825-13.545a19.532 19.532 0 0 1-5.389-14.732l-4.478.056.071-2.464 4.659-.058c.515-2.642 1.497-5.04 2.886-7.151l-7.161-4.077.095-2.773 8.599 4.892a19.755 19.755 0 0 1 7.244-5.326l-14.693-33.953.06-1.735a15.761 15.761 0 0 0 1.868-.04l15.112 34.936a19.807 19.807 0 0 1 5.341-.746c1.03 0 2.06.083 3.102.256 3.137.524 5.904 1.797 8.287 3.54l54.043-55.46 3.52-.088-55.6 57.087c4.599 4.34 7.006 10.81 5.892 17.509-.287 1.747-.862 3.33-1.569 4.875l50.942 36.02-1.353 2.076M46.4 425.416a78.28 78.28 0 0 0-.209-2.484l99.539-19.706.012 2.5-99.342 19.69m194.267-7.194L188.06 405.56a19.694 19.694 0 0 1-2.131 4.674 19.413 19.413 0 0 0-9.36-6.469c-.263-.084-.528-.096-.813-.169l3.479-22.64 33.087-55.13 1.185 2.814-33.003 55.048c6.06 4.184 9.532 11.577 8.24 19.31l-.025.18 53.11 12.782c-.204.318-.408.643-.588.975l-.574 1.287m-86.72-6.371a19.639 19.639 0 0 1-3.49-7.06l-2.655.527-.011-2.499 2.237-.443c-.248-1.904-.325-3.845.003-5.819.35-2.104 1.1-4.007 2.046-5.794l1.24-2.156a19.78 19.78 0 0 1 6.318-5.698l-12.044-24.235-.029-6.284 14.553 29.302c1.491-.568 3.018-1.046 4.632-1.26l-8.725-120.228-10.89-3.044-.014-2.88 10.694 2.995-1.334-18.443a18.76 18.76 0 0 0 2.794 4.37l1.069 14.76 26.618 7.45 1.377 3.285-27.79-7.776 8.668 119.274c1.13.007 2.255.043 3.42.237 1.56.26 3.02.73 4.398 1.35l-3.286 21.378a19.946 19.946 0 0 0-3.24-.266c-6.661 0-12.928 3.357-16.559 8.957m1137.13-18.673l-24.835-15.29-.671-3.317 25.495 15.681.012 2.926m-737.517-3.322l-1.437-2.45 150.61-1.86-3.281 2.504-145.892 1.806m148.945-1.843l3.27-2.505 83.525-1.032-.084 2.464-86.71 1.073m540.767-5.82a18.44 18.44 0 0 1-2.755-.25c-5.245-.872-9.652-3.766-12.585-7.744l-3.557 2.282.73-4.781.994-.634c-.24-.493-.467-.999-.658-1.512l2.934-19.068a19.313 19.313 0 0 1 7.053-5.666l-4.455-11.31.743-4.817 6.023 15.28c1.88-.605 3.856-.97 5.88-1.005l-.347 39.225M20.936 373.594a75.093 75.093 0 0 0-2.167-1.844L79.897 256c-8.691-5.22-13.79-15.346-12.024-25.961a25.245 25.245 0 0 1 6.415-13.08l-50.462-52.043L1 302.094v-17.089l20.395-122.57L2.2 142.655a75.175 75.175 0 0 0 1.71-2.252l18.052 18.617L45.103 19.95c-2.812-1.382-5.462-3.236-7.729-5.608L1 45.102v-3.64l34.583-29.247c-.149-.207-.338-.371-.48-.612-8.578-12.001-5.801-28.683 6.202-37.275a26.398 26.398 0 0 1 15.392-4.942 26.822 26.822 0 0 1 19.31 8.222L174.13-119h3.974L77.836-20.294c.248.31.525.537.742.839 6.742 9.436 6.38 21.711.124 30.73l52.655 40.867c1.317-1.51 2.813-2.807 4.532-3.85l2.146-1.207a19.695 19.695 0 0 1 8.053-1.735c1.055 0 2.123.086 3.198.266.356.06.684.18 1.053.275L191.223-119h2.862L153.002 46.666a19.73 19.73 0 0 1 7.773 5.448l98.07-70.203c-2.418-3.912-3.592-8.663-2.777-13.58.37-2.219 1.185-4.227 2.215-6.101l1.305-2.092c1.976-2.75 4.575-4.978 7.616-6.398L239.04-119h2.647l27.853 71.915c1.952-.617 4-.976 6.12-.976.982 0 1.987.079 2.993.246a19.373 19.373 0 0 1 7.365 2.84L263.157-13.2a20.708 20.708 0 0 1-2.886-2.873L162.3 54.033c2.707 4.009 3.97 9.023 3.113 14.167-1.095 6.585-5.325 11.816-10.924 14.493l15.25 33.913-1.66 2.306-15.909-35.374c-1.41.48-2.88.818-4.413.944l3.632 49.82.172 2.365a22.34 22.34 0 0 0-2.513-.495l-3.76-51.65c-.824-.037-1.625-.021-2.451-.159-.145-.024-.285-.081-.447-.108L102.06 210.44c11.107 4.193 18.055 15.792 16.031 27.955-.421 2.541-1.31 4.887-2.391 7.085l29.348 8.22.013 2.881-30.695-8.58c-3.165 4.927-7.983 8.499-13.522 10.32l44.637 89.874.028 6.288-47.405-95.387a27.375 27.375 0 0 1-5.424.564c-1.276 0-2.57-.1-3.88-.317-2.278-.379-4.392-1.163-6.399-2.095L20.936 373.594M47.743 21.171l-23.35 140.331 51.987 53.575c3.245-2.817 7.125-4.85 11.43-5.728L59.454 22.619a27.32 27.32 0 0 1-2.654.13c-3.088 0-6.156-.527-9.058-1.578m45.855 187.642c1.173 0 2.36.078 3.564.278.777.13 1.479.413 2.213.602l40.328-126.168c-5.71-1.965-10.05-6.445-12.03-11.944l-.736-2.368a19.057 19.057 0 0 1-.222-7.453c.165-1.002.476-1.965.764-2.898l.947-2.285c.377-.77.798-1.499 1.247-2.203L77.016 13.506c-1.358 1.57-2.851 3.05-4.637 4.299A25.985 25.985 0 0 1 62.22 22.2l28.35 186.76a34.395 34.395 0 0 1 3.029-.147m696.123 163.33l-38.116-21.692 2.12-1.62 2.73 1.55 33.362 18.99-.096 2.773m434.453-8.028a19.334 19.334 0 0 1 .192-4.76c.144-.842.42-1.61.67-2.383l-34.942-13.677 2.06-2.233 33.553 13.14-1.533 9.913m39.159-.467l-1.94-9.492c1.4 2.896 2.12 6.126 1.94 9.492m-989.183-7.704l-29.555-66.724c-.814.184-1.652.281-2.502.281-.611 0-1.222-.05-1.844-.154-.946-.156-1.82-.453-2.683-.811l-22.752 37.923-1.186-2.813 21.795-36.315c-2.3-1.632-4-4.008-4.67-6.765l-34.596-9.679.43-2.778 33.878 9.483c0-.598.012-1.177.108-1.776l.036-.182 18.465 11.594a10.97 10.97 0 0 1-2.12 1.24l28.321 63.938-1.125 3.538m987.159-2.221l-.527-2.56 30.021-17.607.012 2.86-29.506 17.307m-511.428-4.251l-36.404-20.718 4.083-.506L752 347.853l-2.12 1.62m-259.378-6.103l-2.419-.397 3.88-35.758 2.191 2.629-3.652 33.526m697.783-.783l-105.727-41.39 6.06-.678 101.715 39.835-2.048 2.233m104.59-7.375l-.012-2.861 65.647-38.5c.455.683.934 1.362 1.413 2.031l-23.483 13.786-43.565 25.544m-63.408-5.534l-6.514-16.56c.97.288 1.952.55 2.946.788l4.31 10.955-.742 4.817m-518.625-2.426l-75.862-43.169-71.646-40.742.742-2.429 150.838 85.835-4.072.505m-384.421-10.698l-9.317-1.524-13.496-6.117a14.694 14.694 0 0 0-.898-3.114l23.71 10.755m555.976-1.673l36.296-37.257 1.82 1.656-34.583 35.512-3.533.089m-100.47-3.935l-54.87-126.807 2.599-.194 54.103 125.022c-.67.606-1.281 1.27-1.832 1.979m-287.496-3.634l-2.192-2.63 8.395-77.206c-7.317-1.265-12.873-6.447-15.124-13.023l-55.912 15.193-1.748-2.09 56.977-15.478c-.467-2.304-.599-4.705-.192-7.164a19.513 19.513 0 0 1 2.85-7.358l34.189-.845-1.221.895c2.526 3.943 3.7 8.762 2.874 13.744-.324 1.926-.982 3.695-1.773 5.358l40.907 23.279-.755 2.43-41.337-23.51c-3.557 5.421-9.676 8.772-16.346 8.772-.3 0-.599-.006-.91-.02l-8.682 79.653m462.642-7.297l-6.395-32.936a18.701 18.701 0 0 1-4.143-.223c-3.688-.614-6.886-2.26-9.52-4.512L922.62 277.12l-1.82-1.655 14.478-14.855c-3.892-4.306-5.892-10.208-4.862-16.356.37-2.233 1.161-4.295 2.227-6.18l-2.862-1.822-99.668-63.298 3.233-.885 97.142 61.709 3.46 2.204c3.629-4.986 9.449-8.14 15.831-8.14 1.054 0 2.132.088 3.21.268 2.514.419 4.814 1.348 6.885 2.574l68.114-98.353-3.58 9.498-62.534 90.319c1.401 1.097 2.658 2.32 3.7 3.74l30.896-19.787-1.45 3.859-28.188 18.05c2.095 3.724 3.017 8.135 2.263 12.681-.156.954-.455 1.854-.719 2.741l12.25 4.797-1.005 2.672-12.322-4.822c-2.515 5.15-7.125 8.94-12.598 10.39l6.395 32.867a14.257 14.257 0 0 0-4.024.679m121.822-.25l-96.782-37.89.994-2.672 101.859 39.884-6.071.678m-797.128-.757l-30.548-13.855c-.228.281-.467.553-.719.813l-19.4-12.179a11.719 11.719 0 0 1 4.144-5.524l-21.327-47.415 2.574-.288 20.885 46.463c1.389-.62 2.91-.98 4.466-1.02l5.377-48.895 2.503-.281-5.425 49.384c4.658.86 8.191 4.356 9.28 8.693l97.884-26.592-3.544 3.525-94.004 25.534c.024.77-.024 1.527-.156 2.303-.203 1.213-.634 2.338-1.173 3.395l32.129 14.57a14.444 14.444 0 0 0-2.946 1.369m-87.585-28.676l-3.317-.926-1.377-3.286 5.113 1.434-.42 2.778m157.292-19.464l3.545-3.525 70.892-19.26 1.748 2.089-56.15 15.256-20.035 5.44m839.065-20.114l-36.165-91.856a20.003 20.003 0 0 1-6.191 1.009c-1.006 0-2.024-.08-3.042-.25-5.257-.876-9.663-3.786-12.585-7.765l-41.039 26.278-2.047-1.631 41.804-26.772c-1.904-3.43-2.85-7.38-2.419-11.527 1.94-.298 3.88-.911 5.724-1.863 4.204-2.166 7.173-5.729 8.802-9.8l17.34-1.549c.79.643 1.533 1.346 2.203 2.1l5.64 10.943-.766.133c.18 1.726.216 3.493-.084 5.29-.24 1.456-.646 2.802-1.15 4.114l9.174 4.372 1.868 3.62-12.167-5.8c-2.024 3.637-5.065 6.523-8.754 8.252l35.47 90.119a54.805 54.805 0 0 0-1.616 2.583m-1035.013-5.1l-3.38-46.71a21.142 21.142 0 0 0 2.42-.807l3.097 42.784a18.913 18.913 0 0 0-2.137 4.733m1197.13-6.557l-60.438-28.826-.012-2.748 43.158 20.578 18.382 8.77c-.371.737-.73 1.482-1.09 2.226m-1139.529-.008l-6.706-14.91.695-4.466 8.574 19.087-2.563.289m785.656-1.54l1.46-3.86 87.622-56.116 2.036 1.631-91.118 58.345m-751.36-2.31l9.76-88.742a58.867 58.867 0 0 0 2.575-.923l-9.832 89.384-2.502.281m-42.548-14.518l-10.538-23.422 1.21-3.305 10.011 22.26-.683 4.467m283.976-5.026c.215-.259.43-.513.658-.76l-47.265-48.926 1.485-2.027 47.6 49.277a19.568 19.568 0 0 1 10.347-4.53L495.34 73.322l2.311-3.154 6.515 118.41.083-.001c.97 0 1.952.024 2.958.191 4.515.752 8.37 3.054 11.22 6.197l-29.577.73m31.075-.767l43.804-32.074.958 2.36-40.427 29.606-4.335.108m770.22-5.645l-12.502-5.962 1.078-2.23 11.412 5.444.012 2.748m-14.358-6.85l-64.019-30.535-.826-3.126 65.922 31.432-1.077 2.23m-549.497-.074l-36.787-85.015c-1.33.252-2.683.399-4.06.399-.994 0-1.988-.077-3.006-.244a19.576 19.576 0 0 1-2.97-.74l25.004-24.238c.096.292.18.588.252.886l25.998-3.373 75.394-9.793.084 2.475-11.867 1.542-89.274 11.6c.204 1.794.288 3.62-.036 5.497-.443 2.718-1.449 5.194-2.85 7.39l107.32 68.172.108 3.006-108.973-69.208a19.676 19.676 0 0 1-8.741 5.962l37.002 85.487-2.598.195m669.917-2.699l-46.379-92.837-69.826 12.026a25.624 25.624 0 0 1-14.55 11.288l-28.333-38.639c4.647-6.892 12.514-11.24 21.1-11.24 1.39 0 2.79.115 4.204.35 13.867 2.307 23.231 15.439 20.932 29.304-.371 2.2-1.09 4.258-1.964 6.207l67.287-11.614-16.968-33.916-120.373-14.234-2-2.735 121.056 14.321-50.966-102.002L1178.19-8.842l-1.496-2.048L1278.3-56.292 1246.975-119h3.101l30.776 61.585 39.098-17.47c-.694-2.01-.982-4.202-.598-6.484.347-2.086 1.221-3.953 2.395-5.57L1287.199-119h4l10.442 9.695-9.245-9.695h3.868l27.997 29.388c1.437-1.14 3.054-1.986 4.862-2.467L1313.256-119h3.234l15.58 26.447a14.33 14.33 0 0 1 2.694.183c7.28 1.21 12.214 8.118 11.005 15.397a13.215 13.215 0 0 1-3.246 6.71L1438 31.867v4.101l-97.512-104.342c-.144.108-.3.184-.432.277l57.492 110.903a24.704 24.704 0 0 1 10.131-2.183c1.33 0 2.67.11 4.024.334 13.4 2.23 22.43 14.888 20.202 28.268-1.749 10.548-10.011 18.319-19.999 20.066l10.107 86.05-.479-.001c-.778 0-1.556.011-2.323.035l-10.07-85.697c-.564.03-1.126.047-1.69.047a23 23 0 0 1-3.807-.299c-6.347-1.055-11.676-4.5-15.328-9.23l-35.638 6.14 46.2 92.443a74.08 74.08 0 0 0-2.67.882m-61.181-128.685l16.49 33.053 35.302-6.08c-2.982-4.87-4.371-10.735-3.365-16.786.251-1.521.67-2.932 1.173-4.344l-49.6-5.843m-14.059-123.594l-38.99 17.42 51.72 103.526 51.995 6.157a24.394 24.394 0 0 1 9.508-10.322L1337.59-66.794a13.311 13.311 0 0 1-5.09 1.02c-.706 0-1.413-.058-2.131-.177-4.156-.692-7.509-3.262-9.4-6.667M193.126 174.612l-17.18-38.203 2.006-1.535 16.383 36.432-1.21 3.305m634.58-3.187l-4.958-3.15a14.398 14.398 0 0 0-5.688-4.512l.611-1.646 13.268 8.423-3.233.885m-261.51-7.318l-.946-2.36 21.627-15.831-.778 3.618-19.903 14.573m249.176-1.046a12.515 12.515 0 0 0-1.353-.329l-2.539-1.617-.108-3.004 4.73 3.007-.73 1.943m394.229-12.196l-28.932-13.797-1.856-3.62 29.962 14.29.826 3.127m-621.275-2.968l.778-3.617 1.677-1.228 77.155-56.525c-1.64-3.502-2.312-7.503-1.617-11.611.335-2.07 1.09-3.976 1.988-5.72l-54.774-38.773.563-2.628 55.444 39.244c3.605-5.204 9.556-8.467 16.095-8.467.131 0 .263.001.395.004l28.908-109.443 2.347.701-28.764 108.91c.131.021.251.006.37.026 3.258.542 6.156 1.923 8.623 3.813l92.83-81.22c.12.28.252.559.395.835.252.489.527.955.815 1.399l-92.1 80.605a20.136 20.136 0 0 1 4.347 6.441l-26.19 25.386c-3.508-1.596-6.394-4.188-8.418-7.35l-80.867 59.218M440.95 144.67l-90.16-93.337 3.28-.15 88.364 91.46-1.484 2.027m-265.872-10.195l-6.015-13.374 1.66-2.306 6.36 14.144-2.005 1.536m855.616-1.71l1.377-3.676c.324.099.647.186.982.263l-2.359 3.413m140-15.06l-1.197-2.319 14.31-2.462c.443.802.934 1.557 1.485 2.265l-14.598 2.516m87.561-6.512a25.57 25.57 0 0 1-4.191-.347c-4.55-.757-8.538-2.751-11.88-5.468l-24.129 4.161c.276-.859.503-1.736.659-2.626l21.184-3.646c-5.353-5.612-8.143-13.494-6.778-21.71a25.259 25.259 0 0 1 2.838-8.16l27.339 37.285a25 25 0 0 1-5.042.51m-209.85-4.006a14.829 14.829 0 0 0-1.616-2.001l45.948-66.343c-4.036-2.98-6.742-7.404-7.604-12.37l-10.934 1.42 1.102-2.62 2.587-.335a56.334 56.334 0 0 0 14.621 1.92 55.992 55.992 0 0 0 25.83-6.275l4.61 8.955c-1.544 4.459-4.634 8.07-8.502 10.393l.444 1.053 18.094 41.19a18.816 18.816 0 0 0-3.114-.952l-17.603-40.09a19.65 19.65 0 0 1-7.88 1.662c-1.053 0-2.131-.086-3.209-.266-2.323-.388-4.455-1.223-6.394-2.328l-46.38 66.987m95.633-2.505a19.4 19.4 0 0 0 .646-3.613 19.205 19.205 0 0 1 3.844-.394c1.006 0 2.024.08 3.054.251a19.422 19.422 0 0 1 6.79 2.476l-14.334 1.28M495.184 70.424l-1.413-25.608 2.467-.113 1.246 22.567-2.3 3.154m312.835-7.943l-.084-2.476 48.667-6.323-.982 2.614-47.6 6.185m49.66-6.453l.981-2.613 63.073-8.193 3.317 2.052-67.371 8.754m-509.237-7.122L334.085 34.05l2.754-.706 14.082 14.58-2.478.982m579.446-2.002l-3.305-2.052 148.622-19.308-1.102 2.62-144.215 18.74m-434.214-3.911l-2.562-46.516a12.569 12.569 0 0 0 2.634 2.98l2.395 43.423-2.467.113m714.872-6.967l-44.75-5.293-1.378-2.663 44.116 5.22 2.012 2.736m-875.923-3.488L311.739 10.91l1.737-1.753 21.902 22.673-2.754.707m828.694-2.097l-17.4-2.059-2.072-2.746 18.106 2.142 1.366 2.663m-549.413-1.176L564.843-4.042l1.772-1.77 45.852 32.45-.562 2.627m529.498-1.178l-17.627-2.085c-.012.113 0 .249-.024.361-.012.059-.012.118-.024.175l-3.58-6.94a53.76 53.76 0 0 0 3.03-1.848c.526 1.845.79 3.789.73 5.764l15.435 1.825 2.06 2.748m-870.75-1.688a56.418 56.418 0 0 0-2.311-1.46L272.09-9.12a19.264 19.264 0 0 1-7.269-2.858l22.872-31.78a19.796 19.796 0 0 1 6.91 11.334l66.629-9.542-2.874 2.904-63.42 9.071c.132 1.568.132 3.147-.143 4.766a19.44 19.44 0 0 1-4.886 9.993l22.13 22.904-1.737 1.753-22.201-22.98a19.464 19.464 0 0 1-13.568 4.641l-3.88 35.313M1 20.103v-4.686L100.26-119h3.472L1 20.103m1437-2.733L1340.547-119h3.413L1438 12.572v4.798m-308.38-4.52l.18-.16.047.059-.227.1m1.94-.864l-.407-.535a54.716 54.716 0 0 0 3.4-3.514l12.335-5.51 1.137 2.205-16.465 7.354m18.345-8.196l-1.137-2.206 25.998-11.614 1.496 2.048-26.357 11.772M563.334-5.114l-28.213-19.962 2.527-1.245 27.458 19.437-1.772 1.77m-72.892-10.65l-1.293-23.644c-1.018-.005-2.048-.025-3.114-.203-6.646-1.107-11.939-5.473-14.55-11.201l22.07-27.32c6.623 1.48 11.688 6.202 13.976 12.17l6.622-2.045-.563 2.77-5.257 1.621c.623 2.496.754 5.163.311 7.866-.43 2.57-1.365 4.91-2.658 7.024l3.7 2.612-.55 2.645-4.623-3.276a19.336 19.336 0 0 1-12.91 7.163l1.126 20.52a12.446 12.446 0 0 0-2.287 3.297M533.42-26.28l-22.656-16.042.539-2.645 24.644 17.444-2.527 1.243m279.748-9.03a14.24 14.24 0 0 0-1.904-1.42l.228-.417L905.041-119h3.784l-95.657 83.688m-451.433-4.234l2.874-2.904 78.269-11.207 26.895-3.84c-.12-1.549-.107-3.11.156-4.696.335-2.023 1.054-3.864 1.928-5.598l-52.02-30.392 1.809-1.817 51.42 30.047a19.675 19.675 0 0 1 11.532-8.072L477.162-119h2.503l7.376 40.6a21.356 21.356 0 0 1 2.623-.168c.515 0 1.03.02 1.533.065l-20.561 25.459a19.128 19.128 0 0 1-.515-2.017l-25.435 3.65-82.951 11.865m784.434-6.46a55.935 55.935 0 0 0-1.066-3.13l.42-.77 1.592 2.173-.946 1.727m2.024-3.73l-1.593-2.173L1182.992-119h2.743l-37.542 69.263m-430.43-2.209l-2.358-.702 6.67-25.26 2.167 1.42-6.478 24.542m326.282-5.837l-4.49-6.033 4.97 2.504.933 1.258a55.296 55.296 0 0 0-1.413 2.271m-2.275-7.215l-4.957-2.502-30.98-41.575a76.6 76.6 0 0 0 2.958-.194l32.98 44.271m-526.194-.851l.563-2.769 79.047-24.393.658.306c.12.658.252 1.317.395 1.967l-80.663 24.889m209.155-12.5l-2.167-1.42 3.448-13.037L732.912-119h2.575l-6.43 24.29-4.324 16.362m342.234-1.042l-2.467-6.775L1052.513-119h2.646l14.047 38.53c-.755.344-1.497.704-2.24 1.08M418.018-99.252L384.212-119h4.922l30.68 17.931-1.797 1.817"/>
            <path fill="#1C9A90" d="M1088.73 839h-4.075l-24.352-8.89c-.168-.29-.324-.588-.48-.887-.287-.55-.443-1.123-.67-1.675l-3.08 1.015-3.129-1.144 3.751-1.24 20.446 7.473 12.86 4.692c-.205.115-.42.226-.624.334-.216.111-.431.219-.647.322m-119.63 0h-2.576l-12.871-34.933a19.88 19.88 0 0 1 2.373-.568L969.1 839m-445.14 0h-2.66l6.963-18.077c.707.51 1.378 1.071 2.013 1.682L523.961 839m-121.618-2.674l-2.912-.93-.827-2.424 2.912.93.827 2.424m429.571-7.776l-2.492-1.718 2.109-.768 2.505 1.717-2.122.77m212.45-4.264l-4.303-1.572 5.429-.63 4.302 1.573-5.429.63m-195.958-1.74l-.66-2.384 1.739-.634.67 2.387-1.749.632m-450.904-.43l-2.732-.406-.755-2.196 2.732.405.755 2.197m639.396-.557l-5.201-1.899 6.603-.208 5.201 1.9-6.603.207m-170.947-5.394l1.33-3.116 2.374-.863-1.343 3.117-2.36.862m116.225-14.59l-2.133-.78 1.917-1.935 2.133.778-1.917 1.936m-53.715-3.445a19.341 19.341 0 0 1-1.03-1.513l33.125-20.988c.347.506.659 1.028.947 1.565l-33.042 20.936m75.91-21.873l3.092-3.11 3.583-.678-3.092 3.11-3.583.678m-116.405-6.703l-1.75-.566.97-2.265 1.763.567-.983 2.264m-512.48-12.075l-3.14-1.583-.96-2.793 3.153 1.584.947 2.792m731.664-.681l1.402-2.78 2.553-.483-1.402 2.778-2.553.485m15.915-3.014l2.098-2.908 2.936-.555-2.097 2.908-2.937.555m-292.804-2.828l-2.098-.677-.79-2.854 2.097.677.79 2.854m-270.166-12.572l.827-2.13 3.32-1.746-.827 2.138-3.32 1.738m40.065-20.994l-.468-1.524 2.217-1.164.468 1.526-2.217 1.162m48.297-25.033l-26.713-8.608a13.15 13.15 0 0 1 1.414-1.921l-.348-.352 25.563 8.242c.108.882.132 1.765.084 2.639m-44.45-10.783l-36.134-13.137c0-.109.012-.219.024-.328.084-.505.192-1.003.312-1.493l36.684 13.336c-.275.558-.575 1.099-.886 1.622m363.381-7.233l.455-2.111 2.733-.992-.468 2.11-2.72.993m-521.96-7.267l-2.013-.078-1.487-2.53 2.026.077 1.474 2.53m161.49-1.7l-11.924-12.08a20.08 20.08 0 0 1 3.512 2l.455-.573 1.75 1.768-.264.325c2.026 1.849 3.655 4.064 4.746 6.558l1.69-.624 1.905 1.933-1.87.693m-236.74-1.206l-2.374-.092 2.158-2.39 2.385.092-2.17 2.39m-79.385-.486l-2.54-.403-1.21-2.341 2.54.399 1.21 2.345m336.86-5.986l-.396-2.487 1.762-.651.396 2.488-1.762.65m-381.838-1.158l-2.912-.46-1.726-2.36 2.9.458 1.738 2.362m328.603-24.099l-4.195-4.253-1.51-4.125 4.195 4.25 1.51 4.128m48.609-3.846l-.527-3.301 1.546-1.94.527 3.301-1.546 1.94m121.654-14.212l8.27-5.677 7.01-2.593-8.269 5.674-7.01 2.596m-435.984-.355l-2.732-4.164-.923-5.906 2.732 4.166.923 5.904m469.516-12.058a14.457 14.457 0 0 1-2.828-1.568l20.541-7.599 1.965-.729a14.526 14.526 0 0 1-1.126 3.027l-18.552 6.869m206.6-7.417l1.079-4.985 3.775-5.734-1.09 4.987-3.764 5.732m-606.354-.276l-2.217-1.122.958-1.816 2.217 1.122-.958 1.816m7.814-14.897l-1.738-2.017.91-1.74 1.75 2.018-.922 1.74m-56.172-9.583l-2.684-1.357-.348-2.49 2.685 1.357.347 2.49m-64.656-26.06l-3.308-.534-1.546-2.348 3.308.532 1.546 2.35m58.52-.214l-.3-2.093 2.374-.911.287 2.09-2.36.914m214.677-1.909l-.73-2.01 1.809-2.224.73 2.01-1.809 2.224m-131.05-2.874l-.443-4.483 1.534-2.926.455 4.482-1.546 2.927m291.15-4.81l-2.084-1.362 1.15-1.428 2.073 1.363-1.138 1.427m591.89-.2a22.442 22.442 0 0 1-2.685-.546l-9.648-36.877a22.041 22.041 0 0 1 2.074-1.757l10.258 39.18m-264.905-1.456l-1.582-.924 1.355-2.072 1.582.925-1.355 2.071M983.722 521.5a18.352 18.352 0 0 1-.312-1.819l39.118-13.311-2.553 1.634c.168.32.347.644.503.972L983.722 521.5m-564.96-4.052l-2.158-1.218.851-1.619 2.157 1.218-.85 1.619m3.032-11.12l1.102-2.102 3.164-.69-1.103 2.103-3.163.69m-100.838-2.418l-2.96-3.422-.455-3.325 2.96 3.42.455 3.327m710.931-3.54c-.12-1.525 0-3.047.348-4.511l16.934-10.853c1.498.288 2.936.81 4.279 1.55l-21.56 13.814m248.246-6.765l-4.243-6.466-1.641-6.305 4.23 6.466 1.654 6.305m-762.021-8.281l-.635-1.728 2.432-.53.624 1.729-2.421.529m543.34-3.9l9.6-10.44 6.076-3.893-9.6 10.44-6.076 3.893m-903.773-4.41a48.611 48.611 0 0 0-.833-.158l1.679-7.225-.846 7.383m59.155-7.222l-8.413-8.305-5.441-8.275 8.413 8.305 5.441 8.275m97.973-10.223l-2.684-1.488-.312-2.254 2.684 1.487.312 2.255m133.327-3.458l4.686-8.941 8.45-10.772-4.687 8.943-8.449 10.77m-141.357-3.084l-.035-.007a19.55 19.55 0 0 1-11.554-6.435l11.59 6.442m957.715-9.45l-4.266-16.318a18.702 18.702 0 0 1 2.6 3.816 18.56 18.56 0 0 1 1.666 12.502m-1102.619-3.193a19.614 19.614 0 0 1-2.261-1.285l2.37-21.115a19.423 19.423 0 0 1-8.076-6.103c3.634-5.6 9.905-8.956 16.571-8.956 1.074 0 2.158.088 3.243.266l3.289-21.377c.449.2.89.419 1.318.65l.887-1.477-3.482 22.64c.285.073.55.085.813.169a19.428 19.428 0 0 1 9.368 6.468 19.254 19.254 0 0 1-4.782 5.234l8.353 12.703c-.048.143-.084.285-.131.427a19.783 19.783 0 0 1-.947 2.413l-9.372-14.245c-2.918 1.676-6.27 2.654-9.776 2.654-1.022 0-2.059-.083-3.1-.257-.649-.106-1.197-.313-1.801-.482l-2.484 21.673m722.555-5.072l-1.486-1.047 1.355-2.075 1.474 1.048-1.343 2.074m-615.99-10.388l-27.744-6.672.575-1.287c.18-.332.384-.657.588-.975l26.521 6.376c.096.855.12 1.71.06 2.558m85.893-1.224l-1.306-2.23 1.833-.464 1.319 2.231-1.846.463m434.186-2.002l.143-4.138 1.906-2.392-.132 4.138-1.917 2.392m-304.85-10.872a18.27 18.27 0 0 1-2.193-.168l20.901-26.648c.276.68.504 1.376.695 2.087l-19.403 24.729m-337.973-5.069l-.012-2.5 2.063-.407.01 2.499-2.06.408M1294 394.482l-2.061-1.272-.012-2.925 2.061 1.272.012 2.925m-742.27-4.568l-1.439-2.45 2.11-.025 1.438 2.45-2.11.025m148.116-1.83l3.284-2.506 3.044-.037-3.272 2.505-3.056.037m89.836-1.11l.084-2.464 1.834-.023-.072 2.464-1.846.023m454.715-4.744l-.3-.002.348-39.223a18.135 18.135 0 0 1 1.822.057l-.048 6.451-.3 32.656c-.503.04-1.018.061-1.522.061m-21.536-4.222l.731-4.781 2.325-1.492-.73 4.781-2.326 1.492m44.223-.086l-2.409-1.485-.683-3.315 2.42 1.484.672 3.316m-475.1-4.72l-1.799-1.023.096-2.772 1.798 1.023-.096 2.772m434.27-3.613a19.792 19.792 0 0 1-1.27-5.438l1.533-9.912.312.125a19.875 19.875 0 0 1 2.36-3.841l-2.935 19.066m36.876-.689l-3.955-19.356c.6.67 1.15 1.38 1.654 2.124l.79-.468.528 2.56-.096.058.18.376 1.942 9.49a17.17 17.17 0 0 1-1.043 5.216M147.547 358.71l-2.086-4.192-.028-6.287 2.085 4.195.029 6.284m127.772-.222l-1.114-2.506 1.126-3.539 1.115 2.508-1.127 3.537m476.719-8l-1.726-.978 2.121-1.62 1.726.978-2.121 1.62m-261.501-5.26l-2.433-.396.203-1.822 2.421.398-.191 1.82m700.337-1.895l-1.81-.709 2.05-2.233 1.82.71-2.06 2.232m100.801-6.878l-.012-2.86 2.061-1.206.012 2.86-2.061 1.206m-498.446-.41l-10.846-25.061v.001a15.388 15.388 0 0 1 1.833-1.978l10.942 25.263a15.787 15.787 0 0 1-1.87.04l-.06 1.735m438.56-2.497l-1.51-3.832.744-4.817 1.51 3.832-.743 4.817m-517.91-4.755l-2.636-1.503 4.074-.505 2.649 1.503-4.087.505m-500.364-.115l-1.186-2.813 1.306-2.179 1.187 2.813-1.307 2.18m749.653-.406l-5.5-28.218a14.28 14.28 0 0 1 4.026-.679l5.453 28.038a14.665 14.665 0 0 1-3.979.86m-630.263-8.788l-9.336-1.525-6.376-2.891 9.324 1.523 6.388 2.893m548.206-2.69l1.821-1.876 3.536-.089-1.834 1.878-3.523.087m-386.727-6.912l-2.194-2.629.276-2.532 2.193 2.63-.275 2.53m-190.698-.93l-21.86-9.905a14.463 14.463 0 0 1 2.948-1.369l18.014 8.16c.42 1.019.719 2.063.898 3.114m779.567-7.716l-3.667-1.432 6.076-.678 3.655 1.432-6.064.678m-834.144-13.967l-18.48-11.593c.12-.638.288-1.255.491-1.848l19.415 12.178c-.443.46-.922.883-1.426 1.263m671.97-7.948l-1.822-1.656 2.11-2.159 1.821 1.655-2.11 2.16M196.15 270.93l-1.978-.556.42-2.778 1.99.556-.432 2.778m-5.297-1.483l-2.53-.709-1.377-3.284 2.528.707 1.379 3.286m791.874-7.53l-2.493-.974 1.007-2.671 2.48.973-.994 2.672m-835.64-4.715l-2.074-.58-.013-2.88 2.073.58.013 2.88m200.943-5.322l3.547-3.525 3.56-.969-3.548 3.525-3.559.969m215.589-8.496l-1.63-.924.755-2.43 1.618.926-.743 2.428m-404.382-.137a18.759 18.759 0 0 1-2.796-4.371l-.955-13.178a18.904 18.904 0 0 1 2.138-4.732l1.613 22.28m268.598-13.03l-1.75-2.09 1.941-.525 1.75 2.09-1.941.525m-213.911-9.323l-.791-1.759 2.564-.288.803 1.759-2.576.288m781.723-.888l1.45-3.858 3.776-2.412-1.462 3.86-3.764 2.41m-748.394-2.851l.203-1.87 2.505-.28-.204 1.868-2.504.282m-40.832-12.929l-1.546-3.458.684-4.466 1.558 3.46-.696 4.464m281.288-6.623c.42-.649.875-1.269 1.366-1.86l29.602-.73c.192.214.372.43.563.652l.935-.689 4.339-.108-2.59 1.891-34.215.844m805.37-7.283l-2.074-.988-.012-2.748 2.073.987.012 2.749m-565.607-6.132l-.767-1.779 2.6-.195.767 1.78-2.6.194m551.022-.818l-1.858-.888 1.08-2.23 1.857.888-1.079 2.23m-1126.389-4.377l-3.098-42.769c.848.117 1.688.283 2.515.496l3.004 41.466c-.798.321-1.607.59-2.42.807m42.224-1.645l-1.21-2.687 1.21-3.305 1.21 2.687-1.21 3.305m636.28-4.344l-2.409-1.53 3.236-.885 2.409 1.53-3.236.885m-7.37-4.68l-8.737-5.543c.455.085.91.194 1.354.33l.731-1.944 1.57.999-.611 1.646a14.407 14.407 0 0 1 5.693 4.512m-258.266-3.06l-.959-2.36 1.522-1.107.947 2.359-1.51 1.109m246.988-4.1l-1.881-1.19-.108-3.006 1.881 1.192.108 3.004m278.64-1.91l-2.038-1.63 1.606-1.035 2.05 1.63-1.619 1.035m121.966-7.305l-2.169-1.035-.827-3.126 2.17 1.034.826 3.127M586.4 149.584l.78-3.619 2.228-1.636-.779 3.618-2.229 1.637m-143.97-3.524l-1.294-1.34 1.487-2.027 1.294 1.34-1.486 2.027m582.625-4.18l3.584-9.497 18.815-27.145a14.83 14.83 0 0 1 1.618 2l-15.364 22.165c-.335-.077-.66-.165-.983-.263l-1.378 3.675-6.292 9.065m156.386-4.761l-3.068-1.467-1.87-3.62 3.08 1.466 1.858 3.62m-1005.517-.658l-.87-1.935 2.006-1.535.871 1.935-2.007 1.535m-6.89-15.308l-.984-2.187 1.661-2.307.984 2.188-1.661 2.306m960.55-2.86c.048-.393.096-.788.168-1.184 1.042-6.325 5.07-11.393 10.366-14.152l-9.515-21.681c1.066.227 2.109.546 3.116.952l8.688 19.763c.983-.364 1.99-.657 3.02-.87a19.383 19.383 0 0 1-.647 3.613l14.346-1.28a19.853 19.853 0 0 1 2.349 1.629l-17.354 1.548c-1.63 4.071-4.602 7.634-8.808 9.8a18.688 18.688 0 0 1-5.73 1.863m39.741-.169l-5.644-10.942a19.644 19.644 0 0 1 4.542 8.608l2.037-.352 1.199 2.318-2.134.368m16.743-2.883a17.316 17.316 0 0 1-1.486-2.265l34.934-6.01c-.155.89-.383 1.767-.659 2.625l-32.79 5.65m78.068-4.507l-27.36-37.283c.359-.65.742-1.284 1.162-1.895l28.355 38.635c-.707.212-1.426.393-2.157.543M679.843 96.815a19.001 19.001 0 0 1-1.857-.733l26.21-25.384c.251.613.48 1.24.671 1.88l-25.024 24.237M495.57 73.378l-.156-2.898 2.301-3.154.168 2.898-2.313 3.154m311.105-10.604l-.084-2.475 1.822-.237.084 2.476-1.822.236m49.46-6.42l.983-2.615 2.061-.267-.983 2.613-2.06.268m-505.23-4.963l-2.35-2.426 2.481-.983 3.152 3.26-3.284.149m574.716-4.058l-3.32-2.052 2.853-.37 3.307 2.052-2.84.37M494 44.874l-.096-1.823 2.469-.112.096 1.822-2.469.113m718.134-8.459l-2.792-.33-2.014-2.737 2.805.332 2.001 2.735M334.187 34.11l-1.462-1.512 2.756-.707 1.462 1.512-2.756.707m830.369-3.317l-2.481-.292-1.366-2.663 2.468.292 1.379 2.663m-550.7-.311l-1.63-1.157.564-2.627 1.63 1.157-.563 2.627m509.82-.886l-4.614-8.955a57.33 57.33 0 0 0 1.81-.983l3.583 6.94a20.277 20.277 0 0 1-.78 2.998m20.985-1.154l-2.516-.295-2.062-2.747 2.505.297 2.073 2.745m-71.87-.217l1.102-2.62 2.097-.273-1.102 2.62-2.098.273m57.79-15.415l-.048-.06c.467-.406.91-.819 1.354-1.239l.407.535-1.713.764m-818.756-1.838l-1.438-1.486 1.738-1.753 1.438 1.486-1.738 1.753m836.948-6.279l-1.138-2.206 1.881-.841 1.139 2.205-1.882.842M493.976-.482a12.571 12.571 0 0 1-2.637-2.98l-.67-12.24A12.445 12.445 0 0 1 492.956-19l1.02 18.517m71.15-3.499l-1.51-1.072 1.775-1.77 1.51 1.074-1.774 1.768m611.903-3.94l-1.498-2.048 1.93-.859 1.498 2.048-1.93.858M264.87-11.916a19.316 19.316 0 0 1-1.666-1.223l22.878-31.77c.588.375 1.15.781 1.678 1.215l-22.89 31.778m527.15-4.426c-.289-.444-.564-.91-.816-1.398a12.26 12.26 0 0 1-.395-.835l21.164-18.51-.227.418c.67.417 1.306.891 1.905 1.42l-21.632 18.905m-256.636-8.671l-1.701-1.205 2.528-1.243 1.702 1.203-2.529 1.245M358.48-38.998l2.876-2.904 3.38-.483-2.877 2.903-3.38.484m152.527-3.26l-1.63-1.146.551-2.646 1.618 1.146-.539 2.645m636.855-5.41l-1.594-2.173 1.079-2.002 1.594 2.172-1.079 2.004m-430.17-2.434l-2.35-.701.468-1.78 2.36.702-.479 1.78m-245.993-.646a20.586 20.586 0 0 1-.851-2.232l20.577-25.457c.432.037.863.09 1.283.16.36.06.719.131 1.078.21l-22.087 27.319m573.493-10.499l-4.973-2.504-2.745-3.684 4.962 2.502 2.756 3.686M513.834-65.17l.564-2.77 1.989-.61-.563 2.768-1.99.612m210.82-11.25l-2.17-1.42.491-1.86 2.17 1.42-.492 1.86M596.156-92.637l-.66-.306.576-.177c.036.162.06.32.084.483m-176.148-5.477l-1.822-1.07 1.798-1.816 1.834 1.068-1.81 1.818M1226 314a54.28 54.28 0 0 1-2.916-.79L1191 230.59a55.095 55.095 0 0 1 1.6-2.591l33.4 86M1093.405 26c-5.048 0-9.952-.666-14.604-1.914l6.9-.895a19.043 19.043 0 0 1 .24-4.103c.861-5.162 3.708-9.495 7.619-12.412L1045-58.38c.455-.768.921-1.521 1.411-2.265l49.266 66c.91-.527 1.878-.963 2.87-1.345l-30.654-83.932a61.965 61.965 0 0 1 2.236-1.077l30.775 84.239a19.448 19.448 0 0 1 7.595-.23c2.691.445 5.13 1.4 7.248 2.778l30.189-55.548a55.693 55.693 0 0 1 1.064 3.12l-29.28 53.932a19.449 19.449 0 0 1 4.665 5.65l13.013-5.803a54.595 54.595 0 0 1-3.397 3.503c-.442.419-.885.83-1.351 1.236l-.18.16-7.02 3.133c.227.572.418 1.157.586 1.752a57.238 57.238 0 0 1-4.832 2.822c-7.727 3.997-16.506 6.256-25.8 6.256M299.478 773c-.816-.17-1.633-.36-2.437-.565l35.968-92.965c-4.706-2.173-8.296-6.038-10.096-10.716L295 664.337a55.946 55.946 0 0 1 5.402-1.31l21.682 3.4a19.23 19.23 0 0 1-.528-3.427 56.296 56.296 0 0 1 29.51 15.63c-.77.444-1.573.838-2.402 1.178L366 730.519a56.503 56.503 0 0 1-1.165 4.282l-18.524-54.188c-1.669.46-3.433.714-5.234.714a18.94 18.94 0 0 1-3.122-.257c-.912-.15-1.776-.428-2.629-.718L299.478 773M257 127l10.77-102c.75.47 1.502.96 2.23 1.467l-10.516 99.606c-.82.33-1.652.638-2.484.927M1218.549 645L1122 589.223c.336-.75.684-1.491 1.056-2.223L1220 643.002a48.836 48.836 0 0 1-1.451 1.998"/>
            <path fill="#1C9A90" d="M145.078 588a59.281 59.281 0 0 1-2.078-.102L155.693 476a53.751 53.751 0 0 1 2.307.401L145.078 588"/>
            <path fill="#1DA89B" d="M1347.934 758a75.676 75.676 0 0 1-31.134-6.687 73.885 73.885 0 0 1-6.6-3.38 74.738 74.738 0 0 1-2.145-1.274 80.588 80.588 0 0 1-5.487-3.733 80.33 80.33 0 0 1-5.414-4.436 83.842 83.842 0 0 1-2.049-1.913 75.367 75.367 0 0 1-11.213-13.718 83.607 83.607 0 0 1-1.365-2.232c-8.003-13.579-11.536-29.302-10.279-44.85a68.79 68.79 0 0 1 .264-2.709c1.51-12.809 6.301-25.407 14.555-36.49 6.373-8.537 14.184-15.353 22.845-20.365a76.278 76.278 0 0 1 53.332-8.682 75.784 75.784 0 0 1 14.46 4.498 76.163 76.163 0 0 1 15.716 9.045c9.428 7.025 16.76 15.816 21.875 25.573a76.302 76.302 0 0 1 6.816 52.256 75.292 75.292 0 0 1-2.168 7.631 75.584 75.584 0 0 1-11.021 20.888 75.902 75.902 0 0 1-16.316 16.126c-2.144 1.561-4.373 3-6.649 4.312-11.62 6.691-24.773 10.14-38.023 10.14M1422.325 328a77.078 77.078 0 0 1-12.34-.998c-11.691-1.903-23.105-6.548-33.255-14.077-6.369-4.728-11.798-10.256-16.23-16.34a73.303 73.303 0 0 1-1.42-2.033c-14.88-21.916-17.373-50.43-5.887-74.779.361-.745.722-1.49 1.095-2.227a76.407 76.407 0 0 1 6.863-10.97 75.96 75.96 0 0 1 38.515-27.136 77.061 77.061 0 0 1 22.78-3.44h.48c5.37.035 10.764.631 16.074 1.805v148.372a77.358 77.358 0 0 1-16.675 1.823M1 500V361a74.982 74.982 0 0 1 14.82 8.717 76.055 76.055 0 0 1 4.865 3.992c14.6 13.022 23.103 30.765 24.938 49.24.082.825.15 1.652.206 2.48 1.162 17.408-3.582 35.307-14.708 50.391C23.033 486.784 12.576 494.905 1 500M1 144V47c21.132 26.155 23.12 64.643 2.822 93.267A74.886 74.886 0 0 1 1 144"/>
        </g>
    </g>
</svg>
